<svg width="52" height="40" viewBox="0 0 52 40" fill="none" xmlns="http://www.w3.org/2000/svg">
<g id="Frame" clip-path="url(#clip0_846_1224)">
<g id="Group">
<path id="Vector" d="M0.902283 11.7295H7.87973" stroke="#231916" stroke-width="3" stroke-miterlimit="10" stroke-linecap="square"/>
<path id="Vector_2" d="M50.2256 11.7295H43.2482" stroke="#231916" stroke-width="3" stroke-miterlimit="10" stroke-linecap="square"/>
<path id="Vector_3" d="M44.0301 31.5791H7.21807C4.21055 31.5791 1.74438 29.1129 1.74438 26.1054V19.6092C1.74438 16.6017 4.21055 14.1355 7.21807 14.1355H44.0301C47.0376 14.1355 49.5038 16.6017 49.5038 19.6092V26.1054C49.5038 29.1129 47.0978 31.5791 44.0301 31.5791Z" fill="white" stroke="#231916" stroke-width="3" stroke-miterlimit="10"/>
<path id="Vector_4" d="M43.3685 14.0753H7.87976L10.1655 5.35347C10.8271 2.70685 13.2331 0.902344 15.9399 0.902344H35.3083C38.0151 0.902344 40.361 2.70685 41.0828 5.35347L43.3685 14.0753Z" fill="white" stroke="#231916" stroke-width="3" stroke-miterlimit="10"/>
<g id="Group_2">
<path id="Vector_5" d="M10.7068 27.3685C13.1983 27.3685 15.2181 25.3487 15.2181 22.8572C15.2181 20.3657 13.1983 18.3459 10.7068 18.3459C8.21532 18.3459 6.19556 20.3657 6.19556 22.8572C6.19556 25.3487 8.21532 27.3685 10.7068 27.3685Z" fill="#6EABE2"/>
<g id="Group_3">
<path id="Vector_6" d="M10.7068 19.8498C12.391 19.8498 13.7143 21.1731 13.7143 22.8573C13.7143 24.5415 12.391 25.8648 10.7068 25.8648C9.0226 25.8648 7.69929 24.5415 7.69929 22.8573C7.69929 21.1731 9.08275 19.8498 10.7068 19.8498ZM10.7068 16.8423C7.39854 16.8423 4.69177 19.5491 4.69177 22.8573C4.69177 26.1656 7.39854 28.8724 10.7068 28.8724C14.0151 28.8724 16.7218 26.1656 16.7218 22.8573C16.7218 19.5491 14.0151 16.8423 10.7068 16.8423Z" fill="white"/>
</g>
</g>
<g id="Group_4">
<path id="Vector_7" d="M40.5414 27.3685C43.0329 27.3685 45.0527 25.3487 45.0527 22.8572C45.0527 20.3657 43.0329 18.3459 40.5414 18.3459C38.0499 18.3459 36.0302 20.3657 36.0302 22.8572C36.0302 25.3487 38.0499 27.3685 40.5414 27.3685Z" fill="#6EABE2"/>
<g id="Group_5">
<path id="Vector_8" d="M40.5414 19.8498C42.2256 19.8498 43.5489 21.1731 43.5489 22.8573C43.5489 24.5415 42.2256 25.8648 40.5414 25.8648C38.8572 25.8648 37.5339 24.5415 37.5339 22.8573C37.5339 21.1731 38.8572 19.8498 40.5414 19.8498ZM40.5414 16.8423C37.2331 16.8423 34.5264 19.5491 34.5264 22.8573C34.5264 26.1656 37.2331 28.8724 40.5414 28.8724C43.8497 28.8724 46.5564 26.1656 46.5564 22.8573C46.5564 19.5491 43.8497 16.8423 40.5414 16.8423Z" fill="white"/>
</g>
</g>
<path id="Vector_9" d="M11.9699 39.0979H9.50373C8.36087 39.0979 7.45862 38.1956 7.45862 37.0528V31.5791H14.015V37.0528C14.015 38.1355 13.0526 39.0979 11.9699 39.0979Z" fill="white" stroke="#231916" stroke-width="3" stroke-miterlimit="10"/>
<path id="Vector_10" d="M39.3384 39.0979H41.8046C42.9474 39.0979 43.8497 38.1956 43.8497 37.0528V31.5791H37.2332V37.0528C37.2332 38.1355 38.1956 39.0979 39.3384 39.0979Z" fill="white" stroke="#231916" stroke-width="3" stroke-miterlimit="10"/>
</g>
</g>
<defs>
<clipPath id="clip0_846_1224">
<rect width="51.1278" height="40" fill="white"/>
</clipPath>
</defs>
</svg>
