<svg width="34" height="50" viewBox="0 0 34 50" fill="none" xmlns="http://www.w3.org/2000/svg">
<g id="Frame" clip-path="url(#clip0_846_1204)">
<g id="Group">
<path id="Vector" d="M25.1537 48.5855L16.9126 44.6495L8.67151 48.5855V27.0603H25.1537V48.5855Z" fill="white" stroke="#231916" stroke-width="3" stroke-miterlimit="10" stroke-linejoin="bevel"/>
<path id="Vector_2" d="M16.9126 43.6175V22.7688" stroke="#E2E2E2" stroke-width="3" stroke-miterlimit="10"/>
<path id="Vector_3" d="M16.9126 32.2879C25.4041 32.2879 32.2878 25.4042 32.2878 16.9128C32.2878 8.42129 25.4041 1.5376 16.9126 1.5376C8.42117 1.5376 1.53748 8.42129 1.53748 16.9128C1.53748 25.4042 8.42117 32.2879 16.9126 32.2879Z" fill="white" stroke="#231916" stroke-width="3" stroke-miterlimit="10" stroke-linejoin="bevel"/>
<g id="Group_2">
<path id="Vector_4" d="M16.9126 8.67163L19.4956 13.8377L25.1537 14.6987L21.0331 18.6962L22.0171 24.3543L16.9126 21.7098L11.808 24.3543L12.792 18.6962L8.67151 14.6987L14.3911 13.8377L16.9126 8.67163Z" fill="#6EABE2"/>
</g>
</g>
</g>
<defs>
<clipPath id="clip0_846_1204">
<rect width="33.8253" height="50" fill="white"/>
</clipPath>
</defs>
</svg>
