<svg width="55" height="50" viewBox="0 0 55 50" fill="none" xmlns="http://www.w3.org/2000/svg">
<g id="Frame" clip-path="url(#clip0_846_1248)">
<g id="Group">
<path id="Vector" d="M45.839 5.45703H1.70532V41.2688H45.839V5.45703Z" fill="white" stroke="#231916" stroke-width="3" stroke-miterlimit="10"/>
<path id="Vector_2" d="M9.27698 10.9823V0" stroke="#231916" stroke-width="3" stroke-miterlimit="10"/>
<path id="Vector_3" d="M38.2673 10.9823V0" stroke="#231916" stroke-width="3" stroke-miterlimit="10"/>
<path id="Vector_4" d="M10.9823 15.9619H7.57166V19.3726H10.9823V15.9619Z" fill="#E2E2E2"/>
<path id="Vector_5" d="M25.5116 15.9619H22.101V19.3726H25.5116V15.9619Z" fill="#231916"/>
<path id="Vector_6" d="M18.2128 15.9619H14.8021V19.3726H18.2128V15.9619Z" fill="#E2E2E2"/>
<path id="Vector_7" d="M32.7422 15.9619H29.3315V19.3726H32.7422V15.9619Z" fill="#E2E2E2"/>
<path id="Vector_8" d="M39.9727 15.9619H36.562V19.3726H39.9727V15.9619Z" fill="#E2E2E2"/>
<path id="Vector_9" d="M10.9823 23.397H7.57166V26.8076H10.9823V23.397Z" fill="#231916"/>
<path id="Vector_10" d="M25.5116 23.397H22.101V26.8076H25.5116V23.397Z" fill="#E2E2E2"/>
<path id="Vector_11" d="M18.2128 23.397H14.8021V26.8076H18.2128V23.397Z" fill="#E2E2E2"/>
<path id="Vector_12" d="M32.7422 23.397H29.3315V26.8076H32.7422V23.397Z" fill="#231916"/>
<path id="Vector_13" d="M39.9727 23.397H36.562V26.8076H39.9727V23.397Z" fill="#E2E2E2"/>
<path id="Vector_14" d="M10.9823 30.7639H7.57166V34.1746H10.9823V30.7639Z" fill="#E2E2E2"/>
<path id="Vector_15" d="M25.5116 30.7639H22.101V34.1746H25.5116V30.7639Z" fill="#E2E2E2"/>
<path id="Vector_16" d="M18.2128 30.7639H14.8021V34.1746H18.2128V30.7639Z" fill="#E2E2E2"/>
<g id="Group_2">
<path id="Vector_17" d="M45.8391 48.2946C42.0191 48.2946 38.8813 45.1568 38.8813 41.3369C38.8813 37.5169 42.0191 34.3792 45.8391 34.3792C49.659 34.3792 52.7968 37.5169 52.7968 41.3369C52.7968 45.1568 49.7272 48.2946 45.8391 48.2946Z" fill="#6EABE2"/>
<g id="Group_3">
<path id="Vector_18" d="M45.8391 36.0164C48.7722 36.0164 51.0914 38.4038 51.0914 41.2687C51.0914 44.2019 48.704 46.5211 45.8391 46.5211C42.9059 46.5211 40.5867 44.1337 40.5867 41.2687C40.5867 38.3356 42.9059 36.0164 45.8391 36.0164ZM45.8391 32.6057C41.0642 32.6057 37.176 36.4938 37.176 41.2687C37.176 46.0436 41.0642 49.9318 45.8391 49.9318C50.6139 49.9318 54.5021 46.0436 54.5021 41.2687C54.5703 36.4938 50.6139 32.6057 45.8391 32.6057Z" fill="white"/>
</g>
</g>
</g>
</g>
<defs>
<clipPath id="clip0_846_1248">
<rect width="54.5703" height="50" fill="white"/>
</clipPath>
</defs>
</svg>
