<svg width="48" height="50" viewBox="0 0 48 50" fill="none" xmlns="http://www.w3.org/2000/svg">
<g id="Frame" clip-path="url(#clip0_846_1168)">
<g id="Group">
<path id="Vector" d="M11.4057 6.47344V17.0776H1.54132V6.47344C1.54132 3.76074 3.7608 1.54126 6.4735 1.54126C9.1862 1.54126 11.4057 3.76074 11.4057 6.47344Z" fill="white" stroke="#231916" stroke-width="3" stroke-miterlimit="10" stroke-linecap="round" stroke-linejoin="round"/>
<path id="Vector_2" d="M34.9569 1.54126H6.41187C9.12457 1.54126 11.344 3.76074 11.344 6.47344V40.3205L11.529 40.1356L15.0432 43.6498L18.5574 40.1356L22.0715 43.6498L25.5857 40.1356L29.0999 43.6498L32.6757 40.0739L36.1899 43.5881L39.7041 40.0739L39.889 40.2589V6.47344C39.889 3.76074 37.7312 1.54126 34.9569 1.54126Z" fill="white" stroke="#231916" stroke-width="3" stroke-miterlimit="10" stroke-linecap="round" stroke-linejoin="round"/>
<g id="Group_2">
<path id="Vector_3" d="M39.889 48.4586C43.294 48.4586 46.0543 45.6984 46.0543 42.2934C46.0543 38.8884 43.294 36.1282 39.889 36.1282C36.4841 36.1282 33.7238 38.8884 33.7238 42.2934C33.7238 45.6984 36.4841 48.4586 39.889 48.4586Z" fill="#6EABE2"/>
<path id="Vector_4" d="M39.889 37.6695C42.4168 37.6695 44.5129 39.7657 44.5129 42.2934C44.5129 44.8212 42.4168 46.9174 39.889 46.9174C37.3613 46.9174 35.2651 44.8212 35.2651 42.2934C35.2651 39.7041 37.3613 37.6695 39.889 37.6695ZM39.889 34.5869C35.635 34.5869 32.1825 38.0394 32.1825 42.2934C32.1825 46.5475 35.635 50 39.889 50C44.143 50 47.5956 46.5475 47.5956 42.2934C47.5956 38.0394 44.143 34.5869 39.889 34.5869Z" fill="white"/>
</g>
<g id="Group_3">
<path id="Vector_5" d="M20.037 11.5906H17.2626V14.3649H20.037V11.5906Z" fill="#E2E2E2"/>
<path id="Vector_6" d="M34.4636 11.5906H22.873V14.3649H34.4636V11.5906Z" fill="#E2E2E2"/>
</g>
<g id="Group_4">
<path id="Vector_7" d="M20.037 17.5708H17.2626V20.3452H20.037V17.5708Z" fill="#E2E2E2"/>
<path id="Vector_8" d="M34.4636 17.5708H22.873V20.3452H34.4636V17.5708Z" fill="#E2E2E2"/>
</g>
</g>
</g>
<defs>
<clipPath id="clip0_846_1168">
<rect width="47.5956" height="50" fill="white"/>
</clipPath>
</defs>
</svg>
