<svg width="54" height="50" viewBox="0 0 54 50" fill="none" xmlns="http://www.w3.org/2000/svg">
<g id="Frame" clip-path="url(#clip0_846_1291)">
<g id="Group">
<path id="Vector" d="M28.0728 1.89673C15.3263 1.89673 5.0076 12.2154 5.0076 24.962C5.0076 27.921 5.5387 30.7283 6.60092 33.308L0.682861 48.179L13.7329 43.0196C17.6783 46.1304 22.6859 48.0272 28.0728 48.0272C40.8194 48.0272 51.1381 37.7086 51.1381 24.962C51.214 12.2154 40.8194 1.89673 28.0728 1.89673Z" fill="white" stroke="#231916" stroke-width="3" stroke-miterlimit="10" stroke-linejoin="bevel"/>
<path id="Vector_2" d="M34.3702 17.6023V25.3413" stroke="#231916" stroke-width="3" stroke-miterlimit="10" stroke-linejoin="bevel"/>
<path id="Vector_3" d="M21.7754 25.3413V17.6023" stroke="#231916" stroke-width="3" stroke-miterlimit="10" stroke-linejoin="bevel"/>
<path id="Vector_4" d="M19.1199 29.7419L20.1821 31.0318C22.0789 33.4597 24.9621 34.9013 28.0728 34.9013C31.1836 34.9013 34.1426 33.4597 36.0394 31.0318L37.1017 29.7419" stroke="#6EABE2" stroke-width="3" stroke-miterlimit="10"/>
</g>
</g>
<defs>
<clipPath id="clip0_846_1291">
<rect width="53.1108" height="50" fill="white"/>
</clipPath>
</defs>
</svg>
