<svg width="50" height="50" viewBox="0 0 50 50" fill="none" xmlns="http://www.w3.org/2000/svg">
<g id="Frame" clip-path="url(#clip0_846_1278)">
<g id="Group">
<path id="Vector" d="M48.9906 28.1966V21.7363L41.8573 20.1885C41.5208 18.9099 40.9825 17.6986 40.3768 16.5546L44.2799 10.3635L39.7039 5.78745L33.5128 9.69054C32.3688 9.08489 31.1574 8.54653 29.8788 8.21006L28.1965 1.00952H21.7362L20.1884 8.14277C18.9098 8.47924 17.6985 9.0176 16.5545 9.62325L10.3634 5.72015L5.78733 10.2962L9.69042 16.4873C9.08477 17.6313 8.54641 18.8426 8.20994 20.1212L1.0094 21.8036V28.2639L8.14264 29.879C8.47912 31.1576 9.01748 32.3689 9.62313 33.5129L5.78733 39.704L10.3634 44.28L16.5545 40.377C17.6985 40.9826 18.9098 41.521 20.1884 41.8574L21.8035 48.9907H28.2638L29.8788 41.8574C31.1574 41.521 32.3688 40.9826 33.5128 40.377L39.7039 44.28L44.2799 39.704L40.3768 33.5129C40.9825 32.3689 41.5208 31.1576 41.8573 29.879L48.9906 28.1966Z" fill="white" stroke="#231916" stroke-width="3" stroke-miterlimit="10"/>
<g id="Group_2">
<path id="Vector_2" d="M25.0336 30.4845C28.0441 30.4845 30.4845 28.0441 30.4845 25.0336C30.4845 22.0232 28.0441 19.5828 25.0336 19.5828C22.0232 19.5828 19.5828 22.0232 19.5828 25.0336C19.5828 28.0441 22.0232 30.4845 25.0336 30.4845Z" fill="#6EABE2"/>
</g>
</g>
</g>
<defs>
<clipPath id="clip0_846_1278">
<rect width="50" height="50" fill="white"/>
</clipPath>
</defs>
</svg>
