<svg width="72" height="100" viewBox="0 0 72 100" fill="none" xmlns="http://www.w3.org/2000/svg">
<g id="Frame" clip-path="url(#clip0_846_834)">
<g id="Group">
<g id="Group_2">
<g id="Group_3">
<g id="Group_4">
<path id="Vector" d="M59.7015 88.153L45.6157 80.0373C45.4292 79.944 45.2426 79.7575 45.056 79.5709C44.8228 79.291 44.5896 78.9646 44.4497 78.6381C44.3098 78.3116 44.2165 77.9384 44.2165 77.6119C44.2165 77.472 44.2165 77.3321 44.2631 77.2388L49.1139 59.7015L31.7631 69.7761L26.9124 87.3134C26.8657 87.4534 26.8657 87.5466 26.8657 87.6866C26.8657 88.0131 26.959 88.3396 27.0989 88.7127C27.2389 89.0392 27.4721 89.3657 27.7053 89.6455C27.8918 89.8321 28.0318 89.972 28.265 90.1119L42.3508 98.2276C42.7239 98.4608 43.0504 99.0205 43.0504 99.4403C43.0504 99.6735 42.9571 99.8134 42.8639 99.9067L60.2146 89.8321C60.3545 89.7388 60.4012 89.5989 60.4012 89.3657C60.4012 88.9459 60.0747 88.3862 59.7015 88.153Z" fill="#D2D8E0"/>
<g id="Group_5">
<path id="Vector_2" d="M30.5504 68.2836L47.9012 58.209C48.0411 58.1157 48.2277 58.1623 48.4142 58.2556L31.0635 68.3302C30.8769 68.2369 30.6903 68.2369 30.5504 68.2836Z" fill="white"/>
</g>
<g id="Group_6">
<path id="Vector_3" d="M31.0635 68.3302L48.4142 58.2556C48.4609 58.3022 48.5541 58.3489 48.6008 58.3955C48.9739 58.722 49.2071 59.3284 49.1139 59.7015L31.7631 69.7761C31.8564 69.403 31.6232 68.7966 31.25 68.4702C31.2034 68.4235 31.1568 68.3769 31.0635 68.3302Z" fill="white"/>
</g>
<g id="Group_7">
<path id="Vector_4" d="M31.0634 68.3302C31.1101 68.3769 31.2034 68.4235 31.25 68.4702C31.6231 68.7967 31.8564 69.403 31.7631 69.7761L26.9123 87.3134C26.8657 87.4534 26.8657 87.5467 26.8657 87.6866C26.8657 88.0131 26.959 88.3396 27.0989 88.7127C27.2388 89.0392 27.472 89.3657 27.7052 89.6455C27.8918 89.8321 28.0317 89.972 28.2649 90.1119L42.3508 98.2276C42.7239 98.4608 43.0504 99.0205 43.0504 99.4403C43.0504 99.9067 42.7239 100.093 42.3508 99.8601L28.2649 91.7444C27.8918 91.5112 27.472 91.1847 27.1455 90.8582C26.819 90.4851 26.4926 90.0653 26.2593 89.6455C25.7463 88.7593 25.4664 87.7799 25.4664 86.8937C25.4664 86.6138 25.5131 86.334 25.5597 86.1008L30.3638 68.5634C30.4571 68.2369 30.7836 68.1903 31.0634 68.3302Z" fill="#A4AEBF"/>
</g>
</g>
</g>
<g id="Group_8">
<g id="Group_9">
<path id="Vector_5" d="M69.9626 50.8862L68.5634 50.0466L68.4235 2.28545L69.8227 3.07836L69.9626 50.8862Z" fill="#363636"/>
</g>
<g id="Group_10">
<path id="Vector_6" d="M3.26498 89.3657L1.86572 88.5261L68.5635 50.0466L69.9627 50.8862L3.26498 89.3657Z" fill="#363636"/>
</g>
<g id="Group_11">
<path id="Vector_7" d="M1.53915 92.3041L0.139893 91.5112L70.2425 51.0261L71.6418 51.819L1.53915 92.3041Z" fill="#F1F1F1"/>
</g>
<g id="Group_12">
<path id="Vector_8" d="M3.17159 41.5578L1.77234 40.7649L68.4235 2.28545L69.8227 3.07836L3.17159 41.5578Z" fill="#4E4E4E"/>
</g>
<g id="Group_13">
<path id="Vector_9" d="M3.26488 89.3657L1.86562 88.5261L1.77234 40.7649L3.17159 41.5578L3.26488 89.3657Z" fill="#4E4E4E"/>
</g>
<g id="Group_14">
<path id="Vector_10" d="M1.39929 42.3041L1.53922 92.3041L71.6418 51.819V57.8825C71.6418 58.8153 70.9888 59.8881 70.1959 60.3545L2.98511 99.2071C2.1922 99.6735 1.53922 99.3004 1.53922 98.3675L1.39929 42.3041Z" fill="url(#paint0_linear_846_834)"/>
</g>
<path id="Vector_11" d="M69.6828 0.0932807C69.403 -0.0466447 69.0765 -0.0466447 68.6567 0.186564L1.4459 39.0392C0.652985 39.459 0 40.5784 0 41.5112L0.139925 97.5746C0.139925 98.041 0.279851 98.3675 0.559702 98.5075L1.95896 99.3004C1.6791 99.1604 1.53918 98.834 1.53918 98.3675L1.39925 42.3041C1.39925 41.3713 2.05224 40.2985 2.84515 39.8321L70.056 1.02612C70.4757 0.792908 70.8022 0.792908 71.0821 0.932833L69.6828 0.0932807Z" fill="#B6BECC"/>
<g id="Group_15">
<path id="Vector_12" d="M70.056 1.02612C70.8489 0.559698 71.5019 0.932833 71.5019 1.86567L71.6418 51.8657L1.53922 92.3041L1.39929 42.3041C1.39929 41.3713 2.05228 40.2985 2.84519 39.8321L70.056 1.02612ZM69.9627 50.8862L69.8228 3.07835L3.17168 41.5578L3.26496 89.3657L69.9627 50.8862Z" fill="#272939"/>
</g>
<g id="Group_16">
<path id="Vector_13" d="M69.8227 3.07835L69.9627 50.8862L3.26491 89.3657L3.17163 41.5578L69.8227 3.07835Z" fill="#5E82F8"/>
</g>
</g>
</g>
<g id="Group_17">
<g id="Group_18">
<g id="Group_19">
<g id="Group_20">
<path id="Vector_14" d="M71.5952 49.2071L71.6419 62.7799L42.3508 79.7108V66.0914L71.5952 49.2071Z" fill="url(#paint1_linear_846_834)"/>
</g>
<g id="Group_21">
<path id="Vector_15" d="M42.3508 79.7108L20.1493 66.791V53.1716L42.3508 66.0914V79.7108Z" fill="#BBD2F9"/>
</g>
<g id="Group_22">
<path id="Vector_16" d="M42.3508 66.0914L20.1493 53.1716L49.3937 36.2873L71.5952 49.2071L42.3508 66.0914Z" fill="#E4ECFD"/>
</g>
</g>
<path id="Vector_17" d="M30.084 59.0485L61.6605 40.8116V44.6362L33.3023 60.9142L30.084 59.0485Z" fill="#ECB7AA"/>
<path id="Vector_18" d="M33.0691 60.7743L64.6456 42.4907V46.3153L36.2874 62.5933L33.0691 60.7743Z" fill="#EDD997"/>
<path id="Vector_19" d="M46.7817 52.9851V50.6996C46.7817 50.1866 47.0616 49.7202 47.4814 49.4869L54.3843 45.4291C54.6642 45.2425 55.0373 45.4758 55.0373 45.8022V48.181L46.7817 52.9851Z" fill="#EDD997"/>
<path id="Vector_20" d="M36.0074 62.4534V60.1679C36.0074 59.6549 36.2873 59.1884 36.7071 58.9552L43.6101 54.8974C43.8899 54.7108 44.263 54.944 44.263 55.2705V57.6493L67.5839 44.1698V47.9944L39.2257 64.2724L36.0074 62.4534Z" fill="#ECB7AA"/>
<path id="Vector_21" d="M39.0392 64.1791V61.8937C39.0392 61.3806 39.319 60.9142 39.7388 60.681L46.6418 56.6231C46.9216 56.4366 47.2948 56.6698 47.2948 56.9963V59.375L70.6157 45.8955V49.7202L42.2575 65.9981L39.0392 64.1791Z" fill="#EDD997"/>
</g>
<g id="Group_23">
<g id="Group_24">
<g id="Group_25">
<path id="Vector_22" d="M60.4944 27.9851L60.541 41.6045L31.25 58.5354V44.916L60.4944 27.9851Z" fill="url(#paint2_linear_846_834)"/>
</g>
<g id="Group_26">
<path id="Vector_23" d="M31.25 58.5354L20.1493 52.0522V38.4328L31.25 44.916V58.5354Z" fill="#BBD2F9"/>
</g>
<g id="Group_27">
<path id="Vector_24" d="M31.25 44.916L20.1493 38.4328L49.3937 21.5485L60.4944 27.9851L31.25 44.916Z" fill="#E4ECFD"/>
</g>
</g>
</g>
<path id="Vector_25" d="M37.127 55.4571V53.1716C37.127 52.6586 37.4068 52.1922 37.8266 51.959L44.7296 47.9011C45.0094 47.7145 45.3826 47.9478 45.3826 48.2743V50.653L37.127 55.4571Z" fill="#ECB7AA"/>
<g id="Group_28">
<g id="Group_29">
<g id="Group_30">
<g id="Group_31">
<path id="Vector_26" d="M60.6343 58.1157V58.4888L59.9813 58.1157V57.6959L60.6343 58.1157Z" fill="#717888"/>
</g>
<g id="Group_32">
<g id="Clip path group">
<mask id="mask0_846_834" style="mask-type:luminance" maskUnits="userSpaceOnUse" x="60" y="58" width="1" height="1">
<g id="SVGID_5_">
<path id="Vector_27" d="M60.9608 58.5355V58.9086C60.9608 58.7687 60.8675 58.5821 60.6343 58.4888V58.1157C60.8675 58.209 60.9608 58.3489 60.9608 58.5355Z" fill="white"/>
</g>
</mask>
<g mask="url(#mask0_846_834)">
<g id="Group_33">
<path id="Vector_28" d="M60.9608 58.5355V58.9086C60.9608 58.7687 60.8675 58.5821 60.6343 58.4888V58.1157C60.8675 58.209 60.9608 58.3489 60.9608 58.5355Z" fill="#6D7484"/>
</g>
</g>
</g>
</g>
<g id="Group_34">
<g id="Clip path group_2">
<mask id="mask1_846_834" style="mask-type:luminance" maskUnits="userSpaceOnUse" x="61" y="58" width="1" height="2">
<g id="SVGID_7_">
<path id="Vector_29" d="M61.4272 58.5354V58.9086C61.4272 59.1418 61.2873 59.3284 61.0074 59.5149V59.1418C61.2873 58.9552 61.4272 58.7687 61.4272 58.5354Z" fill="white"/>
</g>
</mask>
<g mask="url(#mask1_846_834)">
<g id="Group_35">
<path id="Vector_30" d="M61.4273 58.6287V59.0019C61.4273 59.0485 61.4273 59.0485 61.3806 59.0951V58.722C61.3806 58.6754 61.3806 58.6754 61.4273 58.6287Z" fill="#828B9D"/>
<path id="Vector_31" d="M61.3806 58.722V59.0951C61.3806 59.1418 61.334 59.1418 61.334 59.1884V58.8153C61.334 58.7687 61.3806 58.722 61.3806 58.722Z" fill="#868FA2"/>
<path id="Vector_32" d="M61.334 58.8153V59.1884C61.334 59.2351 61.2874 59.2351 61.2874 59.2817V58.9086C61.2874 58.8619 61.334 58.8153 61.334 58.8153Z" fill="#8B94A7"/>
<path id="Vector_33" d="M61.2873 58.9086V59.2817C61.2406 59.3284 61.2406 59.3284 61.194 59.375V59.0019C61.2406 58.9552 61.2406 58.9086 61.2873 58.9086Z" fill="#8F98AC"/>
<path id="Vector_34" d="M61.194 59.0019V59.375C61.1474 59.4216 61.1007 59.4683 61.0074 59.5149V59.1418C61.0541 59.0951 61.1474 59.0485 61.194 59.0019Z" fill="#939DB1"/>
</g>
</g>
</g>
</g>
<g id="Group_36">
<path id="Vector_35" d="M60.9608 59.1418V59.5149L55.9701 62.4067V62.0336L60.9608 59.1418Z" fill="#A2ADC3"/>
</g>
<g id="Group_37">
<path id="Vector_36" d="M53.8713 62.0336V62.4067L53.1716 62.0336V61.6604L53.8713 62.0336Z" fill="#717888"/>
</g>
<g id="Group_38">
<g id="Clip path group_3">
<mask id="mask2_846_834" style="mask-type:luminance" maskUnits="userSpaceOnUse" x="53" y="62" width="3" height="1">
<g id="SVGID_9_">
<path id="Vector_37" d="M55.9701 62.0336V62.4067C55.4104 62.7332 54.4309 62.7332 53.8246 62.4067V62.0336C54.4309 62.3601 55.4104 62.3601 55.9701 62.0336Z" fill="white"/>
</g>
</mask>
<g mask="url(#mask2_846_834)">
<g id="Group_39">
<path id="Vector_38" d="M55.97 62.0336V62.4067C55.8768 62.4534 55.7835 62.5 55.6436 62.5466V62.1735C55.7835 62.1269 55.8768 62.0802 55.97 62.0336Z" fill="#97A1B6"/>
<path id="Vector_39" d="M55.6436 62.1735V62.5466C55.5503 62.5933 55.4571 62.5933 55.3638 62.6399V62.2668C55.4571 62.2201 55.5503 62.2201 55.6436 62.1735Z" fill="#939DB1"/>
<path id="Vector_40" d="M55.3638 62.2668V62.6399C55.3172 62.6399 55.2239 62.6399 55.1772 62.6866V62.3134C55.2239 62.2668 55.3172 62.2668 55.3638 62.2668Z" fill="#8F98AC"/>
<path id="Vector_41" d="M55.1772 62.2668V62.6399C55.1305 62.6399 55.0839 62.6399 54.9906 62.6399V62.2668C55.0839 62.3134 55.1305 62.2668 55.1772 62.2668Z" fill="#8B94A7"/>
<path id="Vector_42" d="M54.9906 62.3134V62.6866C54.944 62.6866 54.8973 62.6866 54.8507 62.6866V62.3134C54.8973 62.3134 54.944 62.3134 54.9906 62.3134Z" fill="#868FA2"/>
<path id="Vector_43" d="M54.8507 62.3134V62.6866C54.8041 62.6866 54.7575 62.6866 54.7108 62.6866V62.3134C54.7575 62.3134 54.8041 62.3134 54.8507 62.3134Z" fill="#828B9D"/>
<path id="Vector_44" d="M54.7107 62.2668V62.6399C54.6641 62.6399 54.6174 62.6399 54.5708 62.6399V62.2668C54.6174 62.2668 54.6641 62.2668 54.7107 62.2668Z" fill="#7E8698"/>
<path id="Vector_45" d="M54.5708 62.2668V62.6399C54.5242 62.6399 54.4775 62.6399 54.4309 62.5933V62.2202C54.4775 62.2668 54.5242 62.2668 54.5708 62.2668Z" fill="#7A8293"/>
<path id="Vector_46" d="M54.4309 62.2668V62.6399C54.3843 62.6399 54.3377 62.5933 54.291 62.5933V62.2202C54.291 62.2202 54.3377 62.2202 54.4309 62.2668Z" fill="#767D8E"/>
<path id="Vector_47" d="M54.2443 62.2201V62.5933C54.1977 62.5933 54.1044 62.5466 54.0577 62.5466V62.1735C54.151 62.1735 54.1977 62.1735 54.2443 62.2201Z" fill="#717989"/>
<path id="Vector_48" d="M54.0578 62.1269V62.5C53.9645 62.4534 53.9179 62.4534 53.8246 62.4067V62.0336C53.9179 62.0802 54.0112 62.1269 54.0578 62.1269Z" fill="#6D7484"/>
</g>
</g>
</g>
</g>
<g id="Group_40">
<path id="Vector_49" d="M60.9608 57.9291C61.5672 58.2556 61.5672 58.8153 60.9608 59.1418L55.9701 62.0336C55.4104 62.3601 54.431 62.3601 53.8246 62.0336L53.1716 61.6604L53.4981 61.4739L54.1511 61.847C54.5709 62.0802 55.2239 62.0802 55.597 61.847L60.5877 58.9552C61.0074 58.722 61.0074 58.3489 60.5877 58.1157L59.9347 57.7425L60.2612 57.556L60.9608 57.9291Z" fill="#B5C1DA"/>
</g>
</g>
</g>
</g>
<path id="Vector_50" d="M46.222 34.1884H47.1549C47.8545 34.1884 48.4142 34.7481 48.4142 35.4478V42.5373C48.4142 43.2369 47.8545 43.7966 47.1549 43.7966H46.222" stroke="#D2E0FD" stroke-miterlimit="10"/>
</g>
</g>
</g>
<defs>
<linearGradient id="paint0_linear_846_834" x1="1.39332" y1="70.8596" x2="71.6646" y2="70.8596" gradientUnits="userSpaceOnUse">
<stop stop-color="#C5CCD5"/>
<stop offset="1" stop-color="#DBE1E6"/>
</linearGradient>
<linearGradient id="paint1_linear_846_834" x1="42.334" y1="64.4436" x2="71.6474" y2="64.4436" gradientUnits="userSpaceOnUse">
<stop stop-color="#D2E0FD"/>
<stop offset="1" stop-color="white"/>
</linearGradient>
<linearGradient id="paint2_linear_846_834" x1="31.2325" y1="43.2605" x2="60.5459" y2="43.2605" gradientUnits="userSpaceOnUse">
<stop stop-color="#D2E0FD"/>
<stop offset="1" stop-color="white"/>
</linearGradient>
<clipPath id="clip0_846_834">
<rect width="71.6418" height="100" fill="white"/>
</clipPath>
</defs>
</svg>
