<svg width="20" height="20" viewBox="0 0 20 20" fill="none" xmlns="http://www.w3.org/2000/svg">
<g id="Frame 4423">
<path id="Vector" fill-rule="evenodd" clip-rule="evenodd" d="M5.06944 5.54217C5.06944 2.48131 7.50079 0 10.5 0C13.4992 0 15.9306 2.48131 15.9306 5.54217V6.61563C15.9306 6.68002 15.9223 6.74245 15.9068 6.80186C17.2631 7.31048 18.3203 8.42716 18.7689 9.83606C19 10.562 19 11.459 19 13.253C19 15.047 19 15.944 18.7689 16.67C18.3018 18.1371 17.1746 19.2874 15.737 19.7641C15.0257 20 14.1468 20 12.3889 20H8.61109C6.85323 20 5.97429 20 5.26298 19.7641C3.82535 19.2874 2.69823 18.1371 2.23112 16.67C2 15.944 2 15.047 2 13.253C2 11.459 2 10.562 2.23112 9.83606C2.67968 8.42716 3.73686 7.31048 5.09317 6.80186C5.07769 6.74245 5.06944 6.68002 5.06944 6.61563V5.54217ZM6.48611 6.53893C7.02419 6.50602 7.69945 6.50602 8.61111 6.50602H12.3889C13.3005 6.50602 13.9758 6.50602 14.5139 6.53893V5.54217C14.5139 3.2798 12.7168 1.44578 10.5 1.44578C8.28319 1.44578 6.48611 3.2798 6.48611 5.54217V6.53893ZM10.5 10.6024C10.8912 10.6024 11.2083 10.9261 11.2083 11.3253V15.1807C11.2083 15.58 10.8912 15.9036 10.5 15.9036C10.1088 15.9036 9.79167 15.58 9.79167 15.1807V11.3253C9.79167 10.9261 10.1088 10.6024 10.5 10.6024Z" fill="#666666"/>
</g>
</svg>
