<svg width="132" height="140" viewBox="0 0 132 140" fill="none" xmlns="http://www.w3.org/2000/svg">
<g id="Frame" clip-path="url(#clip0_3_7936)">
<g id="Group">
<path id="Vector" d="M45.3029 50.817C45.3029 41.3939 51.5288 33.317 60.1106 30.6247C62.6346 24.9035 64.8221 18.6776 66.5048 11.7785C67.0096 9.75931 66.6731 9.08624 66.6731 8.91797C66.6731 8.91797 66.6731 8.91797 66.5048 8.91797C43.2837 8.91797 24.4375 27.7641 24.4375 50.9853C24.4375 62.4276 28.9808 72.692 36.3846 80.2641L54.3894 68.4853C49.0048 64.2786 45.3029 57.8843 45.3029 50.817Z" fill="#8DC63F"/>
<path id="Vector_2" d="M79.6298 10.7695L74.4135 30.9618C82.3221 34.159 87.875 41.7311 87.875 50.8176C87.875 50.8176 87.875 50.8176 87.875 50.9859C87.875 62.7647 78.2837 72.1878 66.6731 72.1878C66 72.1878 65.327 72.1878 64.6539 72.0195C56.577 79.0868 48.6683 83.1253 42.9471 85.4811C49.6779 90.1926 57.9231 92.8849 66.6731 92.8849C89.8943 92.8849 108.572 74.0388 108.74 50.9859C108.74 50.9859 108.74 50.9859 108.74 50.8176C108.572 32.1397 96.4568 16.3224 79.6298 10.7695Z" fill="#8DC63F"/>
<g id="Group_2">
<path id="Vector_3" d="M9.46154 107.861H2.73077V109.712H9.46154V107.861Z" fill="#005AAA"/>
<path id="Vector_4" d="M11.9856 111.058H0.206726V112.909H2.73076C2.22596 113.245 2.05769 113.75 1.72115 114.255C1.55288 114.76 1.38461 115.264 1.38461 115.769C1.38461 116.274 1.55288 116.779 1.72115 117.284C1.88942 117.788 2.22596 118.293 2.73076 118.63C3.0673 118.966 3.57211 119.303 4.24519 119.471C4.75 119.639 5.42307 119.808 6.09615 119.808C6.76923 119.808 7.27403 119.639 7.94711 119.471C8.45192 119.303 8.95673 118.966 9.46153 118.63C9.79807 118.125 10.1346 117.788 10.3029 117.284C10.4711 116.779 10.6394 116.274 10.6394 115.769C10.6394 115.264 10.4711 114.76 10.3029 114.255C10.1346 113.75 9.79807 113.245 9.29327 112.909H11.9856V111.058ZM7.61057 117.284C7.10576 117.788 6.60096 117.957 6.09615 117.957C5.42307 117.957 4.91826 117.788 4.58173 117.284C4.24519 116.779 3.90865 116.274 3.90865 115.601C3.90865 114.928 4.07692 114.423 4.58173 113.918C4.91826 113.413 5.59134 113.245 6.09615 113.245C6.60096 113.245 7.27403 113.413 7.61057 113.918C8.11538 114.423 8.28365 114.928 8.28365 115.601C8.28365 116.274 7.94711 116.779 7.61057 117.284Z" fill="#005AAA"/>
<path id="Vector_5" d="M3.74036 127.043V121.322H6.09613V125.024H16.5288V127.043H3.74036Z" fill="#005AAA"/>
<path id="Vector_6" d="M16.024 122.164H13.6683V107.524H16.024V112.236H18.8846V114.087H16.024V122.164Z" fill="#005AAA"/>
<path id="Vector_7" d="M35.7115 108.029C35.7115 108.534 35.7115 109.039 35.5433 109.712C35.5433 110.385 35.375 110.89 35.375 111.563C35.375 112.236 35.2067 112.741 35.2067 113.414C35.2067 113.919 35.0385 114.592 34.8702 114.928H38.0673V116.779H30.4952V119.976H35.2067V127.212H32.851V121.827H22.0817V119.976H27.9712V116.779H19.8942V114.928H32.3462C32.5144 114.255 32.6827 113.414 32.6827 112.404C32.851 111.563 32.851 110.722 32.851 109.88H22.25V108.029H35.7115Z" fill="#005AAA"/>
<path id="Vector_8" d="M46.9856 123.51V118.967H49.5096V123.51H57.4182V125.529H39.0769V123.51H46.9856Z" fill="#005AAA"/>
<path id="Vector_9" d="M49.5096 108.197V110.553C49.5096 111.226 49.6779 111.899 50.0144 112.572C50.351 113.245 50.8558 113.918 51.5289 114.423C52.2019 115.096 52.875 115.601 53.7164 116.106C54.5577 116.611 55.3991 116.947 56.4087 117.284L54.8942 118.798C53.3798 118.293 52.0337 117.62 50.8558 116.779C49.8462 115.938 49.0048 114.928 48.3317 113.918C47.6587 114.928 46.8173 115.938 45.6394 116.779C44.4616 117.62 43.2837 118.293 41.7692 118.798L40.2548 117.284C41.0962 116.947 42.1058 116.611 42.7789 116.106C43.6202 115.601 44.2933 115.096 44.9664 114.423C45.6394 113.75 46.1442 113.245 46.4808 112.572C46.8173 111.899 46.9856 111.226 46.9856 110.553V108.197H49.5096Z" fill="#005AAA"/>
<path id="Vector_10" d="M65.3269 108.029V111.395H60.9519V108.029H58.5961V117.957H67.8509V108.029H65.3269ZM65.3269 115.938H60.9519V113.246H65.3269V115.938Z" fill="#005AAA"/>
<path id="Vector_11" d="M72.0577 121.995C71.7212 121.491 71.3846 120.986 70.8798 120.481C70.375 119.976 69.8702 119.64 69.1971 119.471C68.5241 119.303 67.851 119.135 67.1779 119.135C66.5048 119.135 65.8317 119.303 65.1587 119.471C64.4856 119.808 63.9808 120.144 63.476 120.481C62.9712 120.817 62.6346 121.322 62.4664 121.995C62.1298 122.5 62.1298 123.173 62.1298 123.678C62.1298 124.351 62.2981 124.856 62.4664 125.361C62.8029 125.866 63.1394 126.37 63.476 126.875C63.9808 127.212 64.4856 127.548 65.1587 127.885C65.8317 128.053 66.5048 128.221 67.1779 128.221C67.851 128.221 68.5241 128.053 69.1971 127.885C69.8702 127.716 70.375 127.38 70.8798 126.875C71.3846 126.539 71.7212 126.034 72.0577 125.361C72.3942 124.856 72.3942 124.183 72.3942 123.678C72.3942 123.173 72.3942 122.5 72.0577 121.995ZM69.1971 125.529C68.6923 126.034 68.0192 126.37 67.3462 126.37C66.6731 126.37 66 126.034 65.4952 125.529C64.9904 125.024 64.6539 124.351 64.6539 123.678C64.6539 123.005 64.9904 122.332 65.4952 121.827C66 121.322 66.6731 120.986 67.3462 120.986C68.0192 120.986 68.6923 121.322 69.1971 121.827C69.7019 122.332 70.0385 123.005 70.0385 123.678C70.0385 124.351 69.7019 125.024 69.1971 125.529Z" fill="#005AAA"/>
<path id="Vector_12" d="M72.899 119.135H70.5433V107.524H72.899V111.563H75.7596V113.582H72.899V119.135Z" fill="#005AAA"/>
<path id="Vector_13" d="M87.0337 111.058C86.6971 110.553 86.3606 109.88 86.0241 109.543C85.5192 109.039 85.0144 108.702 84.3414 108.534C83.6683 108.197 82.9952 108.197 82.3221 108.197C81.649 108.197 80.976 108.366 80.3029 108.534C79.6298 108.87 79.125 109.207 78.6202 109.543C78.1154 110.048 77.7789 110.553 77.6106 111.058C77.274 111.563 77.274 112.236 77.274 112.909C77.274 113.582 77.4423 114.255 77.6106 114.76C77.9471 115.265 78.2837 115.769 78.6202 116.274C79.125 116.779 79.6298 117.116 80.3029 117.284C80.976 117.62 81.649 117.62 82.3221 117.62C82.9952 117.62 83.6683 117.452 84.3414 117.284C85.0144 116.947 85.5192 116.611 86.0241 116.274C86.5289 115.769 86.8654 115.265 87.0337 114.76C87.3702 114.255 87.3702 113.582 87.3702 112.909C87.5385 112.236 87.3702 111.563 87.0337 111.058ZM84.6779 114.087C84.5096 114.423 84.3414 114.76 84.1731 115.096C84.0048 115.433 83.6683 115.601 83.3317 115.769C82.9952 115.938 82.6587 115.938 82.3221 115.938C81.649 115.938 80.976 115.601 80.4712 115.096C79.9664 114.591 79.7981 113.75 79.7981 113.077C79.7981 112.236 79.9664 111.563 80.4712 111.058C80.976 110.553 81.649 110.216 82.3221 110.216C82.9952 110.216 83.6683 110.553 84.1731 111.058C84.6779 111.563 84.8462 112.404 84.8462 113.077C85.0144 113.245 84.8462 113.75 84.6779 114.087Z" fill="#005AAA"/>
<path id="Vector_14" d="M80.3029 127.044V120.649H82.6586V125.024H93.0913V127.044H80.3029Z" fill="#005AAA"/>
<path id="Vector_15" d="M100.495 127.044V120.649H102.851V125.024H113.115V127.044H100.495Z" fill="#005AAA"/>
<path id="Vector_16" d="M118.837 127.044V122.332H121.361V125.024H131.793V127.044H118.837Z" fill="#005AAA"/>
<path id="Vector_17" d="M92.5865 107.524V111.563H95.4471V113.414H92.5865V121.659H90.2308V107.524H92.5865Z" fill="#005AAA"/>
<path id="Vector_18" d="M107.731 110.216H103.861V112.236C103.861 112.909 104.029 113.582 104.197 114.255C104.534 114.928 104.87 115.433 105.207 115.937C105.712 116.442 106.216 116.947 106.721 117.452C107.226 117.957 107.899 118.293 108.572 118.63L106.721 120.144C105.712 119.639 104.87 118.966 104.197 118.293C103.524 117.62 102.851 116.779 102.514 116.106C102.01 116.947 101.505 117.788 100.663 118.63C99.8221 119.303 98.9808 119.976 97.9711 120.649L96.1202 119.303C96.7933 118.966 97.4663 118.461 98.1394 118.125C98.8125 117.62 99.3173 117.115 99.8221 116.611C100.327 116.106 100.663 115.433 101 114.76C101.337 114.086 101.337 113.413 101.337 112.74V110.721H97.4663V108.87H107.562V110.216H107.731Z" fill="#005AAA"/>
<path id="Vector_19" d="M110.423 114.087H106.721V112.236H110.423V107.524H112.779V121.827H110.423V114.087Z" fill="#005AAA"/>
<path id="Vector_20" d="M120.014 121.491V118.63H115.639V116.78H120.014C120.519 116.78 121.192 116.78 121.865 116.78C122.538 116.78 123.212 116.78 124.053 116.611C124.726 116.611 125.567 116.443 126.24 116.443C126.913 116.275 127.587 116.275 128.26 116.106V117.789C127.418 117.957 126.577 118.126 125.567 118.126C124.558 118.294 123.716 118.294 122.707 118.294V121.323H120.014V121.491Z" fill="#005AAA"/>
<path id="Vector_21" d="M125.904 110.048C125.567 109.544 125.231 109.039 124.894 108.702C124.389 108.366 123.885 108.029 123.38 107.861C122.875 107.693 122.202 107.524 121.529 107.524C120.856 107.524 120.183 107.693 119.678 107.861C119.173 108.029 118.668 108.366 118.163 108.702C117.659 109.039 117.322 109.544 117.154 110.048C116.986 110.553 116.817 111.058 116.817 111.563C116.817 112.068 116.986 112.572 117.154 113.077C117.322 113.582 117.659 114.087 118.163 114.423C118.668 114.76 119.173 115.097 119.678 115.265C120.183 115.433 120.856 115.601 121.529 115.601C122.202 115.601 122.875 115.433 123.38 115.265C123.885 115.097 124.389 114.76 124.894 114.423C125.399 114.087 125.736 113.582 125.904 113.077C126.24 112.572 126.24 112.068 126.24 111.563C126.409 111.058 126.24 110.553 125.904 110.048ZM123.212 113.246C122.707 113.75 122.202 113.919 121.529 113.919C120.856 113.919 120.351 113.75 119.846 113.246C119.341 112.741 119.173 112.236 119.173 111.563C119.173 110.89 119.341 110.385 119.846 109.88C120.351 109.375 120.856 109.207 121.529 109.207C122.202 109.207 122.707 109.375 123.212 109.88C123.716 110.385 123.885 110.89 123.885 111.563C123.885 112.236 123.716 112.741 123.212 113.246Z" fill="#005AAA"/>
<path id="Vector_22" d="M129.101 120.986H124.726V119.135H129.101V107.524H131.457V122.669H129.101V120.986Z" fill="#005AAA"/>
</g>
<g id="Group_3">
<path id="Vector_23" d="M88.548 0H66.1682L65.3269 3.70192C70.2067 4.54327 72.0577 6.73077 70.8798 12.4519C61.1202 54.6875 29.8221 75.3846 29.8221 75.3846L28.8125 76.0577C29.3173 75.8894 29.6538 76.226 29.149 76.5625L28.4759 76.899L28.1394 76.7308C28.1394 76.899 28.1394 77.0673 28.1394 77.0673L28.3077 77.2356L27.6346 77.4038L27.4663 77.0673C27.4663 78.0769 26.2884 78.0769 25.6154 78.2452C22.923 79.7596 19.8942 80.601 16.6971 80.9375C17.7067 81.274 18.7163 80.4327 19.8942 80.7692C20.0625 81.274 19.7259 81.4423 19.7259 81.7788C18.7163 81.6106 18.2115 84.1346 17.5384 82.4519V82.7885C15.5192 82.7885 14.173 83.7981 12.4904 84.1346C15.0144 83.9663 17.7067 84.1346 20.0625 83.6298C21.4086 83.6298 22.7548 83.4615 23.9327 83.2933C24.1009 83.7981 23.7644 83.9663 23.7644 84.3029C22.923 83.7981 22.5865 86.3221 21.7452 84.6394V84.976C19.7259 84.976 18.3798 85.9856 16.6971 86.1538C19.2211 85.9856 21.9134 86.1538 24.4375 85.649C27.298 85.649 30.1586 85.4808 32.5144 84.1346C32.8509 84.1346 33.1875 83.9663 33.1875 83.9663C37.2259 82.9567 74.5817 73.5337 90.2307 23.0529C90.9038 20.6971 93.2596 12.9567 94.2692 5.55288C94.2692 5.55288 95.4471 0 88.548 0Z" fill="url(#paint0_linear_3_7936)"/>
</g>
<g id="Group_4">
<g id="Group_5">
<path id="Vector_24" d="M8.1154 140H6.60098L4.91828 137.307L4.41348 137.644V140H3.06732V133.605H4.41348V136.466L4.91828 135.793L6.60098 133.605H8.1154L5.9279 136.466L8.1154 140Z" fill="#005AAA"/>
<path id="Vector_25" d="M14.6779 136.803C14.6779 137.813 14.3413 138.654 13.8365 139.327C13.3317 139.832 12.4904 140.168 11.649 140.168C10.8077 140.168 9.96633 139.832 9.46152 139.327C8.95672 138.822 8.62018 137.981 8.62018 136.803C8.62018 135.793 8.95672 134.952 9.46152 134.279C9.96633 133.774 10.8077 133.438 11.649 133.438C12.6586 133.438 13.3317 133.774 13.8365 134.279C14.3413 134.952 14.6779 135.793 14.6779 136.803ZM9.96633 136.803C9.96633 137.476 10.1346 137.981 10.3029 138.486C10.6394 138.822 10.9759 138.99 11.4808 138.99C12.4904 138.99 13.1634 138.317 13.1634 136.803C13.1634 135.288 12.6586 134.615 11.4808 134.615C10.9759 134.615 10.4711 134.784 10.3029 135.12C10.1346 135.457 9.96633 136.13 9.96633 136.803Z" fill="#005AAA"/>
<path id="Vector_26" d="M17.2019 137.476V140H15.8558V133.605H17.7067C18.5481 133.605 19.2212 133.774 19.5577 134.11C19.8942 134.447 20.2308 134.952 20.2308 135.625C20.2308 135.961 20.0625 136.298 19.8942 136.634C19.726 136.971 19.3894 137.139 19.0529 137.307C20.0625 138.822 20.5673 139.663 20.9039 140.168H19.3894L17.875 137.644H17.2019V137.476ZM17.2019 136.466H17.7067C18.2115 136.466 18.3798 136.466 18.7164 136.298C18.8846 136.13 19.0529 135.961 19.0529 135.625C19.0529 135.288 18.8846 135.12 18.7164 134.952C18.5481 134.783 18.2115 134.783 17.7067 134.783H17.3702V136.466H17.2019Z" fill="#005AAA"/>
<path id="Vector_27" d="M25.2789 140H21.577V133.605H25.2789V134.783H22.9231V136.13H25.1106V137.307H22.9231V138.99H25.2789V140Z" fill="#005AAA"/>
<path id="Vector_28" d="M30.327 140L29.8221 138.485H27.4664L27.1298 140H25.6154L27.8029 133.605H29.4856L31.6731 140H30.327ZM29.4856 137.307C28.9808 135.961 28.8125 135.12 28.8125 134.952C28.8125 134.783 28.6443 134.615 28.6443 134.447C28.476 134.783 28.3077 135.793 27.8029 137.139H29.4856V137.307Z" fill="#005AAA"/>
<path id="Vector_29" d="M35.8798 140H34.5337V133.605H38.2356V134.783H35.8798V136.466H38.0673V137.644H35.8798V140Z" fill="#005AAA"/>
<path id="Vector_30" d="M39.4135 140V133.605H40.7596V140H39.4135Z" fill="#005AAA"/>
<path id="Vector_31" d="M43.6202 137.476V140H42.274V133.605H44.125C44.9664 133.605 45.6394 133.774 45.976 134.11C46.3125 134.447 46.649 134.952 46.649 135.625C46.649 135.961 46.4808 136.298 46.3125 136.634C46.1442 136.971 45.8077 137.139 45.4712 137.307C46.4808 138.822 46.9856 139.663 47.3221 140.168H45.8077L44.2933 137.644H43.6202V137.476ZM43.6202 136.466H43.9567C44.4615 136.466 44.6298 136.466 44.9664 136.298C45.1346 136.13 45.3029 135.961 45.3029 135.625C45.3029 135.288 45.1346 135.12 44.9664 134.952C44.7981 134.783 44.4615 134.783 43.9567 134.783H43.6202V136.466Z" fill="#005AAA"/>
<path id="Vector_32" d="M51.6971 140H47.9952V133.605H51.6971V134.783H49.3413V136.13H51.5288V137.307H49.3413V138.99H51.6971V140Z" fill="#005AAA"/>
<path id="Vector_33" d="M58.7644 138.149C58.7644 138.653 58.5961 139.158 58.0913 139.495C57.7548 139.831 57.0817 140 56.4086 140C55.7356 140 55.0625 139.831 54.5577 139.663V138.317C55.0625 138.485 55.399 138.653 55.7356 138.653C56.0721 138.653 56.2404 138.822 56.5769 138.822C56.9134 138.822 57.0817 138.822 57.25 138.653C57.4183 138.485 57.4183 138.317 57.4183 138.149C57.4183 137.98 57.4183 137.98 57.25 137.812C57.25 137.644 57.0817 137.644 56.9134 137.476C56.7452 137.307 56.5769 137.307 56.0721 136.971C55.7356 136.803 55.399 136.634 55.2308 136.466C55.0625 136.298 54.8942 136.129 54.726 135.793C54.5577 135.625 54.5577 135.288 54.5577 134.952C54.5577 134.447 54.7259 133.942 55.0625 133.605C55.399 133.269 55.9038 133.101 56.5769 133.101C56.9134 133.101 57.25 133.101 57.5865 133.269C57.9231 133.269 58.2596 133.437 58.5961 133.605L58.0913 134.615C57.7548 134.447 57.4183 134.447 57.25 134.278C57.0817 134.278 56.7452 134.278 56.5769 134.278C56.2404 134.278 56.0721 134.278 55.9038 134.447C55.7356 134.615 55.7356 134.783 55.7356 134.952C55.7356 135.12 55.7356 135.12 55.7356 135.288C55.7356 135.456 55.9038 135.456 56.0721 135.625C56.2404 135.625 56.4086 135.793 56.9134 136.129C57.5865 136.466 57.9231 136.634 58.0913 136.971C58.5961 137.476 58.7644 137.812 58.7644 138.149Z" fill="#005AAA"/>
<path id="Vector_34" d="M63.6442 140L63.1394 138.485H60.7836L60.2788 140H58.7644L60.9519 133.605H62.6346L64.8221 140H63.6442ZM62.8029 137.307C62.2981 135.961 62.1298 135.12 62.1298 134.952C62.1298 134.783 61.9615 134.615 61.9615 134.447C61.7933 134.783 61.625 135.793 61.1202 137.139H62.8029V137.307Z" fill="#005AAA"/>
<path id="Vector_35" d="M67.1779 140H65.8317V133.605H69.5337V134.783H67.1779V136.466H69.3654V137.644H67.1779V140Z" fill="#005AAA"/>
<path id="Vector_36" d="M74.2452 140H70.5433V133.605H74.2452V134.783H71.8894V136.13H74.0769V137.307H71.8894V138.99H74.2452V140Z" fill="#005AAA"/>
<path id="Vector_37" d="M77.9471 140H76.601V134.783H74.9183V133.605H79.7981V134.783H78.1154V140H77.9471Z" fill="#005AAA"/>
<path id="Vector_38" d="M82.4904 136.298L83.8366 133.606H85.351L83.1635 137.476V140H81.8173V137.476L79.6298 133.438H81.1442L82.4904 136.298Z" fill="#005AAA"/>
<path id="Vector_39" d="M88.0433 140V133.605H89.3894V140H88.0433Z" fill="#005AAA"/>
<path id="Vector_40" d="M96.4568 140H94.7741L91.9135 135.12C91.9135 135.961 91.9135 136.634 91.9135 136.971V140H90.7356V133.605H92.4183L95.2789 138.485C95.2789 137.644 95.2789 137.139 95.2789 136.803V133.774H96.4568V140Z" fill="#005AAA"/>
<path id="Vector_41" d="M101.673 138.149C101.673 138.653 101.505 139.158 101 139.495C100.663 139.831 99.9904 140 99.3173 140C98.6443 140 97.9712 139.831 97.4664 139.663V138.317C97.9712 138.485 98.3077 138.653 98.6443 138.653C98.9808 138.653 99.1491 138.822 99.4856 138.822C99.8221 138.822 99.9904 138.822 100.159 138.653C100.327 138.485 100.327 138.317 100.327 138.149C100.327 137.98 100.327 137.98 100.159 137.812C100.159 137.644 99.9904 137.644 99.8221 137.476C99.6539 137.307 99.4856 137.307 98.9808 136.971C98.6443 136.803 98.3077 136.634 98.1394 136.466C97.9712 136.298 97.8029 136.129 97.6346 135.793C97.4664 135.625 97.4664 135.288 97.4664 134.952C97.4664 134.447 97.6346 133.942 97.9712 133.605C98.3077 133.269 98.8125 133.101 99.4856 133.101C99.8221 133.101 100.159 133.101 100.495 133.269C100.832 133.269 101.168 133.437 101.505 133.605L101 134.615C100.663 134.447 100.327 134.447 100.159 134.278C99.9904 134.278 99.6539 134.278 99.4856 134.278C99.1491 134.278 98.9808 134.278 98.8125 134.447C98.6443 134.615 98.6443 134.783 98.6443 134.952C98.6443 135.12 98.6443 135.12 98.6443 135.288C98.6443 135.456 98.8125 135.456 98.9808 135.625C99.1491 135.625 99.3173 135.793 99.8221 136.129C100.495 136.466 100.832 136.634 101 136.971C101.673 137.476 101.673 137.812 101.673 138.149Z" fill="#005AAA"/>
<path id="Vector_42" d="M105.207 140H103.861V134.783H102.178V133.605H107.058V134.783H105.375V140H105.207Z" fill="#005AAA"/>
<path id="Vector_43" d="M107.731 140V133.605H109.077V140H107.731Z" fill="#005AAA"/>
<path id="Vector_44" d="M113.115 140H111.769V134.783H110.087V133.605H114.966V134.783H113.284V140H113.115Z" fill="#005AAA"/>
<path id="Vector_45" d="M120.856 133.605V137.812C120.856 138.317 120.687 138.654 120.519 138.99C120.351 139.327 120.014 139.663 119.678 139.831C119.341 140 118.837 140.168 118.332 140.168C117.49 140.168 116.817 140 116.481 139.495C116.144 138.99 115.808 138.485 115.808 137.812V133.605H117.154V137.476C117.154 137.98 117.322 138.317 117.49 138.485C117.659 138.654 117.995 138.822 118.5 138.822C119.005 138.822 119.341 138.654 119.51 138.485C119.678 138.317 119.846 137.812 119.846 137.476V133.605H120.856Z" fill="#005AAA"/>
<path id="Vector_46" d="M124.726 140H123.38V134.783H121.697V133.605H126.409V134.783H124.726V140Z" fill="#005AAA"/>
<path id="Vector_47" d="M130.952 140H127.25V133.605H130.952V134.783H128.596V136.13H130.784V137.307H128.596V138.99H130.952V140Z" fill="#005AAA"/>
</g>
</g>
</g>
</g>
<defs>
<linearGradient id="paint0_linear_3_7936" x1="38.4282" y1="74.6632" x2="76.1745" y2="18.7861" gradientUnits="userSpaceOnUse">
<stop stop-color="#0094D0"/>
<stop offset="1" stop-color="#0071BC"/>
</linearGradient>
<clipPath id="clip0_3_7936">
<rect width="131.587" height="140" fill="white" transform="translate(0.206726)"/>
</clipPath>
</defs>
</svg>
