<svg width="18" height="18" viewBox="0 0 18 18" fill="none" xmlns="http://www.w3.org/2000/svg">
<path d="M17 17L12.9501 12.9501M12.9501 12.9501C13.6001 12.3001 14.1158 11.5284 14.4675 10.6791C14.8193 9.82976 15.0004 8.91948 15.0004 8.0002C15.0004 7.08092 14.8193 6.17064 14.4675 5.32134C14.1158 4.47204 13.6001 3.70034 12.9501 3.05031C12.3001 2.40028 11.5284 1.88465 10.6791 1.53286C9.82976 1.18107 8.91948 1 8.0002 1C7.08092 1 6.17064 1.18107 5.32134 1.53286C4.47204 1.88465 3.70034 2.40028 3.05031 3.05031C1.73752 4.3631 1 6.14363 1 8.0002C1 9.85677 1.73752 11.6373 3.05031 12.9501C4.3631 14.2629 6.14363 15.0004 8.0002 15.0004C9.85677 15.0004 11.6373 14.2629 12.9501 12.9501Z" stroke="#004D16" stroke-width="2" stroke-linecap="round" stroke-linejoin="round"/>
</svg>
