<svg width="101" height="24" viewBox="0 0 101 24" fill="none" xmlns="http://www.w3.org/2000/svg">
<g id="logo" clip-path="url(#clip0_958_10688)">
<g id="Group">
<path id="Vector" d="M8.50011 13.1364C8.50011 10.6818 10.091 8.59091 12.3183 7.90909C13.0001 6.45455 13.5456 4.81818 13.9547 3C14.091 2.45455 14.0001 2.27273 14.0001 2.27273C14.0001 2.27273 14.0001 2.27273 13.9547 2.27273C8.00011 2.22727 3.13647 7.13636 3.13647 13.1364C3.13647 16.0909 4.31829 18.7727 6.22738 20.7273L10.8637 17.6364C9.45466 16.6364 8.50011 15 8.50011 13.1364Z" fill="#8BC53F"/>
<path id="Vector_2" d="M17.4092 2.77273L16.0455 8C18.091 8.81818 19.5455 10.7727 19.5455 13.1364C19.5455 16.1818 17.091 18.6364 14.0455 18.6364C13.8637 18.6364 13.6819 18.6364 13.5455 18.5909C11.4546 20.4091 9.40918 21.4545 7.90918 22.0909C9.68191 23.2727 11.7728 24 14.0455 24C20.0455 24 24.9092 19.1364 24.9092 13.1364C24.9092 8.31818 21.7728 4.22727 17.4092 2.77273Z" fill="#8BC53F"/>
<g id="Group_2">
<path id="Vector_3" d="M34.1818 8.77273H30.5454V9.72727H34.1818V8.77273Z" fill="#005AA9"/>
<path id="Vector_4" d="M35.5455 10.5H29.1819V11.5H30.591C30.3637 11.7273 30.1819 11.9545 30.0455 12.2273C29.9092 12.5 29.8637 12.7727 29.8637 13.0455C29.8637 13.3182 29.9092 13.5909 30.0455 13.8636C30.1819 14.1364 30.3637 14.3636 30.5455 14.5909C30.7728 14.8182 31.0455 14.9545 31.3183 15.0909C31.6364 15.2273 31.9546 15.2727 32.3182 15.2727C32.6819 15.2727 33.0001 15.2273 33.3183 15.0909C33.6364 14.9545 33.8637 14.8182 34.091 14.5909C34.3183 14.3636 34.5001 14.1364 34.6364 13.8636C34.7728 13.5909 34.8182 13.3182 34.8182 13.0455C34.8182 12.7727 34.7728 12.5 34.6364 12.2273C34.5001 11.9545 34.3183 11.7273 34.091 11.5H35.5001V10.5H35.5455ZM33.1819 13.8636C32.9546 14.1364 32.6819 14.2727 32.3637 14.2727C32.0455 14.2727 31.7728 14.1364 31.5455 13.8636C31.3183 13.5909 31.2273 13.2727 31.2273 12.9091C31.2273 12.5455 31.3183 12.2273 31.5455 11.9545C31.7728 11.6818 32.0455 11.5455 32.3637 11.5455C32.6819 11.5455 32.9546 11.6818 33.1819 11.9545C33.4092 12.2273 33.5455 12.5455 33.5455 12.9091C33.5001 13.2727 33.4092 13.5909 33.1819 13.8636Z" fill="#005AA9"/>
<path id="Vector_5" d="M31.0911 19.1364V16H32.4092V18.0909H38.0002V19.1364H31.0911Z" fill="#005AA9"/>
<path id="Vector_6" d="M37.7273 16.4545H36.4546V8.54546H37.7273V11.0909H39.2728V12.1364H37.7273V16.4545Z" fill="#005AA9"/>
<path id="Vector_7" d="M48.3638 8.86364C48.3638 9.13637 48.3183 9.45455 48.3183 9.77273C48.2729 10.0909 48.2729 10.4091 48.2274 10.7727C48.182 11.0909 48.1365 11.4091 48.091 11.7273C48.0456 12.0455 48.0001 12.3182 47.9547 12.5909H49.7274V13.6364H45.6365V15.4091H48.2274V19.3182H46.9092V16.3636H41.091V15.3636H44.2274V13.5909H39.8638V12.5455H46.6365C46.7274 12.1364 46.7729 11.6818 46.8638 11.2273C46.9092 10.7273 46.9547 10.3182 47.0001 9.86364H41.2274V8.81818H48.3638V8.86364Z" fill="#005AA9"/>
<path id="Vector_8" d="M54.5 17.2727V14.7727H55.9091V17.2727H60.1363V18.2727H50.2727V17.2727H54.5Z" fill="#005AA9"/>
<path id="Vector_9" d="M55.8638 8.95455V10.2727C55.8638 10.6364 55.9547 11 56.1365 11.3636C56.3184 11.7273 56.5911 12.0909 56.9093 12.4091C57.2274 12.7273 57.6365 13.0455 58.0911 13.3182C58.5456 13.5909 59.0002 13.7727 59.5002 13.9545L58.682 14.7727C57.8184 14.5 57.1365 14.0909 56.5456 13.6364C55.9547 13.1818 55.5002 12.6364 55.182 12.0455C54.8638 12.6364 54.3638 13.1818 53.7729 13.6364C53.182 14.0909 52.4547 14.4545 51.6365 14.7727L50.8184 13.9545C51.3184 13.8182 51.7729 13.5909 52.2274 13.3182C52.682 13.0455 53.0456 12.7727 53.4093 12.4091C53.7274 12.0909 54.0002 11.7273 54.2275 11.3636C54.4093 11 54.5456 10.6364 54.5456 10.2727V8.95455H55.8638Z" fill="#005AA9"/>
<path id="Vector_10" d="M64.4546 8.81818V10.6364H62.0455V8.81818H60.7273V14.1818H65.7273V8.81818H64.4546ZM64.4546 13.1364H62.0455V11.6818H64.4546V13.1364Z" fill="#005AA9"/>
<path id="Vector_11" d="M68.0909 16.4091C67.9546 16.0909 67.7273 15.8636 67.5 15.6364C67.2727 15.4091 66.9546 15.2273 66.6364 15.0909C66.3182 14.9545 65.9546 14.9091 65.5455 14.9091C65.1364 14.9091 64.7728 15 64.4546 15.0909C64.1364 15.2273 63.8182 15.4091 63.5455 15.6364C63.3182 15.8636 63.0909 16.1364 62.9546 16.4091C62.8182 16.7273 62.7273 17.0455 62.7273 17.3636C62.7273 17.6818 62.8182 18 62.9546 18.3182C63.0909 18.5909 63.2728 18.8636 63.5455 19.0909C63.8182 19.3182 64.0909 19.5 64.4546 19.6364C64.7728 19.7727 65.1818 19.8182 65.5455 19.8182C65.9091 19.8182 66.2728 19.7727 66.6364 19.6364C66.9546 19.5 67.2727 19.3182 67.5 19.0909C67.7727 18.8636 67.9546 18.5909 68.0909 18.3182C68.2273 18.0455 68.3182 17.7273 68.3182 17.3636C68.3182 17 68.2273 16.6818 68.0909 16.4091ZM66.5455 18.3636C66.2727 18.6364 65.9091 18.7727 65.5 18.7727C65.0909 18.7727 64.7273 18.6364 64.4546 18.3636C64.1818 18.0909 64.0455 17.7273 64.0455 17.3636C64.0455 17 64.1818 16.6364 64.4546 16.3636C64.7273 16.0909 65.0909 15.9091 65.5 15.9091C65.9091 15.9091 66.2727 16.0455 66.5455 16.3636C66.8182 16.6364 66.9546 17 66.9546 17.3636C66.9546 17.7273 66.8182 18.0455 66.5455 18.3636Z" fill="#005AA9"/>
<path id="Vector_12" d="M68.5455 14.9091H67.2273V8.54546H68.5455V10.7727H70.0909V11.8182H68.5455V14.9091Z" fill="#005AA9"/>
<path id="Vector_13" d="M76.2274 10.4545C76.091 10.1364 75.8637 9.86364 75.6365 9.63637C75.3637 9.40909 75.091 9.22727 74.7728 9.04546C74.4546 8.90909 74.091 8.81818 73.6819 8.81818C73.2728 8.81818 72.9092 8.90909 72.591 9.04546C72.2728 9.18182 71.9546 9.36364 71.7274 9.63637C71.5001 9.86364 71.2728 10.1364 71.1365 10.4545C71.0001 10.7727 70.9092 11.0909 70.9092 11.4545C70.9092 11.8182 71.0001 12.1364 71.1365 12.4545C71.2728 12.7727 71.4546 13.0455 71.7274 13.2727C71.9546 13.5 72.2728 13.6818 72.591 13.8182C72.9092 13.9545 73.3183 14.0455 73.6819 14.0455C74.0455 14.0455 74.4092 13.9545 74.7728 13.8182C75.091 13.6818 75.4092 13.5 75.6365 13.2727C75.8637 13.0455 76.091 12.7727 76.2274 12.4545C76.3637 12.1364 76.4546 11.8182 76.4546 11.4545C76.4546 11.1364 76.3637 10.7727 76.2274 10.4545ZM74.9546 12.0909C74.8637 12.2727 74.7728 12.4545 74.6819 12.5909C74.5455 12.7273 74.4092 12.8636 74.2274 12.9545C74.0455 13.0455 73.8637 13.0909 73.6819 13.0909C73.2728 13.0909 72.9546 12.9545 72.6819 12.6364C72.4092 12.3182 72.2728 11.9545 72.2728 11.5C72.2728 11.0455 72.4092 10.6818 72.6819 10.3636C72.9546 10.0455 73.2728 9.86364 73.6819 9.86364C74.0455 9.86364 74.4092 10 74.6819 10.3636C74.9546 10.6818 75.091 11.0455 75.091 11.5C75.0455 11.6818 75.0455 11.9091 74.9546 12.0909Z" fill="#005AA9"/>
<path id="Vector_14" d="M72.5454 19.1364V15.7273H73.8636V18.0909H79.4545V19.1364H72.5454Z" fill="#005AA9"/>
<path id="Vector_15" d="M83.4546 19.1364V15.7273H84.7728V18.0909H90.3637V19.1364H83.4546Z" fill="#005AA9"/>
<path id="Vector_16" d="M93.4546 19.1364V16.5909H94.7273V18.0909H100.455V19.1364H93.4546Z" fill="#005AA9"/>
<path id="Vector_17" d="M79.1819 8.54546V10.7727H80.7274V11.8182H79.1819V16.1818H77.9092V8.54546H79.1819Z" fill="#005AA9"/>
<path id="Vector_18" d="M87.4091 10.0455H85.3182V11.0909C85.3182 11.4545 85.4091 11.8182 85.5455 12.1364C85.6818 12.4545 85.8637 12.7727 86.1364 13.0909C86.3637 13.3636 86.6364 13.6364 86.9546 13.9091C87.2728 14.1364 87.5909 14.3636 87.9546 14.5455L87 15.3182C86.4546 15 86 14.6364 85.5909 14.2727C85.1818 13.9091 84.8637 13.5 84.6818 13.0909C84.4546 13.5909 84.0909 14.0455 83.6818 14.4545C83.2273 14.8636 82.7273 15.2273 82.2273 15.5455L81.2273 14.7727C81.6364 14.5909 82 14.3636 82.3182 14.0909C82.6818 13.8182 82.9546 13.5455 83.2273 13.2273C83.5 12.9091 83.6818 12.5909 83.8182 12.2273C83.9546 11.8636 84.0455 11.5 84.0455 11.0909V10H81.9546V9H87.4091V10.0455Z" fill="#005AA9"/>
<path id="Vector_19" d="M88.8637 12.1364H86.9092V11.0909H88.8637V8.54546H90.1819V16.3182H88.8637V12.1364Z" fill="#005AA9"/>
<path id="Vector_20" d="M94.0456 16.1364V14.5455H91.6365V13.5455H94.0001C94.2728 13.5455 94.591 13.5455 94.9547 13.5C95.3183 13.5 95.7274 13.4545 96.091 13.4091C96.5001 13.3636 96.8637 13.3182 97.2728 13.2727C97.6819 13.2273 98.0456 13.1364 98.3637 13.0909V14.0909C97.9092 14.1818 97.4547 14.2727 96.9092 14.3182C96.4092 14.3636 95.8637 14.4091 95.3183 14.4545V16.0909H94.0456V16.1364Z" fill="#005AA9"/>
<path id="Vector_21" d="M97.2729 9.95455C97.1365 9.68182 96.9547 9.45455 96.7274 9.22727C96.5002 9.04546 96.2274 8.86364 95.9093 8.72727C95.5911 8.59091 95.2729 8.54546 94.9093 8.54546C94.5456 8.54546 94.182 8.59091 93.8638 8.72727C93.5456 8.86364 93.2729 9 93.0456 9.22727C92.8184 9.45455 92.6365 9.68182 92.5002 9.95455C92.3638 10.2273 92.3184 10.5 92.3184 10.8182C92.3184 11.1364 92.3638 11.4091 92.5002 11.6818C92.6365 11.9545 92.8184 12.1818 93.0456 12.3636C93.2729 12.5909 93.5456 12.7273 93.8638 12.8636C94.182 13 94.5002 13.0455 94.9093 13.0455C95.2729 13.0455 95.5911 13 95.9093 12.8636C96.2274 12.7273 96.5002 12.5909 96.7274 12.3636C96.9547 12.1818 97.1365 11.9091 97.2729 11.6818C97.4093 11.4091 97.5002 11.1364 97.5002 10.8182C97.5002 10.5 97.4093 10.2273 97.2729 9.95455ZM95.7729 11.6818C95.5002 11.9545 95.2274 12.0455 94.8638 12.0455C94.5002 12.0455 94.2274 11.9091 93.9547 11.6818C93.7274 11.4091 93.5911 11.1364 93.5911 10.8182C93.5911 10.5 93.7274 10.1818 93.9547 9.95455C94.182 9.68182 94.5002 9.59091 94.8638 9.59091C95.2274 9.59091 95.5002 9.72727 95.7729 9.95455C96.0456 10.2273 96.1365 10.5 96.1365 10.8182C96.182 11.1364 96.0456 11.4091 95.7729 11.6818Z" fill="#005AA9"/>
<path id="Vector_22" d="M99.0002 15.8182H96.5911V14.8182H99.0002V8.54546H100.273V16.8182H99.0002V15.8182Z" fill="#005AA9"/>
</g>
<g id="Group_3">
<path id="Vector_23" d="M19.6819 0H13.8637L13.6364 0.954545C14.9091 1.13636 15.3637 1.77273 15.0455 3.22727C12.5455 14.1818 4.45459 19.5455 4.45459 19.5455L4.22732 19.7273C4.36368 19.6818 4.40913 19.7727 4.27277 19.8636L4.09095 19.9545L4.00004 19.9091C4.00004 19.9545 4.00004 20 4.00004 20L4.0455 20.0455L3.86368 20.0909L3.81823 20C3.81823 20.2727 3.50004 20.2727 3.31823 20.3182C2.63641 20.6818 1.81823 20.9091 1.0455 21C1.31823 21.0909 1.59095 20.8636 1.86368 20.9545C1.90913 21.0909 1.81823 21.1364 1.81823 21.2273C1.59095 21.1364 1.50004 21.7727 1.27277 21.3182V21.4091C0.727317 21.4091 0.363681 21.6818 -0.0454102 21.7273C0.636408 21.6818 1.31823 21.7273 1.95459 21.5909C2.27277 21.5909 2.63641 21.5455 2.95459 21.5C3.00004 21.5909 2.90914 21.6818 2.90914 21.7273C2.68186 21.6364 2.59095 22.2727 2.36368 21.8182V21.9091C1.81823 21.9091 1.45459 22.1364 1.0455 22.2273C1.72732 22.1818 2.40913 22.2273 3.0455 22.0909C3.77277 22.0909 4.50004 22.0455 5.13641 21.6818C5.18186 21.6818 5.31823 21.6364 5.31823 21.6364C6.36368 21.4091 16 18.9545 20.0455 5.86364C20.2273 5.27273 20.8182 3.22727 21.091 1.31818C21.1819 1.40909 21.4546 0 19.6819 0Z" fill="url(#paint0_linear_958_10688)"/>
</g>
</g>
</g>
<defs>
<linearGradient id="paint0_linear_958_10688" x1="6.72404" y1="19.3255" x2="16.4943" y2="4.86232" gradientUnits="userSpaceOnUse">
<stop stop-color="#0094D0"/>
<stop offset="1" stop-color="#0071BB"/>
</linearGradient>
<clipPath id="clip0_958_10688">
<rect width="100.455" height="24" fill="white"/>
</clipPath>
</defs>
</svg>
