<svg width="17" height="17" viewBox="0 0 17 17" fill="none" xmlns="http://www.w3.org/2000/svg">
<g id="Frame 4411">
<rect x="0.5" y="0.5" width="16" height="16" rx="8" fill="white"/>
<rect x="0.5" y="0.5" width="16" height="16" rx="8" stroke="#666666"/>
<path id="Vector" d="M8.88571 4.38571C8.88571 4.17269 8.71302 4 8.5 4C8.28698 4 8.11429 4.17269 8.11429 4.38571L8.11429 8.11429H4.38571C4.17269 8.11429 4 8.28698 4 8.5C4 8.71302 4.17269 8.88571 4.38571 8.88571H8.11429V12.6143C8.11429 12.8273 8.28698 13 8.5 13C8.71302 13 8.88571 12.8273 8.88571 12.6143V8.88571H12.6143C12.8273 8.88571 13 8.71302 13 8.5C13 8.28698 12.8273 8.11429 12.6143 8.11429H8.88571L8.88571 4.38571Z" fill="#666666"/>
</g>
</svg>
