<svg width="126" height="30" viewBox="0 0 126 30" fill="none" xmlns="http://www.w3.org/2000/svg">
<g id="&#235;&#161;&#156;&#234;&#179;&#160;" clip-path="url(#clip0_846_2224)">
<g id="Group">
<path id="Vector" d="M10.625 16.4208C10.625 13.3526 12.6136 10.7389 15.3977 9.88667C16.25 8.06848 16.9318 6.02303 17.4432 3.7503C17.6136 3.06848 17.5 2.84121 17.5 2.84121C17.5 2.84121 17.5 2.84121 17.4432 2.84121C10 2.78439 3.92045 8.92076 3.92045 16.4208C3.92045 20.1139 5.39773 23.4662 7.78409 25.9094L13.5795 22.0458C11.8182 20.7958 10.625 18.7503 10.625 16.4208Z" fill="#8BC53F"/>
<path id="Vector_2" d="M21.7614 3.46582L20.0568 9.99991C22.6136 11.0226 24.4318 13.4658 24.4318 16.4204C24.4318 20.2272 21.3636 23.2954 17.5568 23.2954C17.3295 23.2954 17.1023 23.2954 16.9318 23.2385C14.3182 25.5113 11.7614 26.8181 9.88636 27.6135C12.1023 29.0908 14.7159 29.9999 17.5568 29.9999C25.0568 29.9999 31.1364 23.9204 31.1364 16.4204C31.1364 10.3976 27.2159 5.284 21.7614 3.46582Z" fill="#8BC53F"/>
<g id="Group_2">
<path id="Vector_3" d="M42.7273 10.9658H38.1818V12.159H42.7273V10.9658Z" fill="#005AA9"/>
<path id="Vector_4" d="M44.4318 13.125H36.4773V14.375H38.2386C37.9545 14.6591 37.7273 14.9432 37.5568 15.2841C37.3864 15.625 37.3295 15.9659 37.3295 16.3068C37.3295 16.6477 37.3864 16.9886 37.5568 17.3295C37.7273 17.6705 37.9545 17.9545 38.1818 18.2386C38.4659 18.5227 38.8068 18.6932 39.1477 18.8636C39.5455 19.0341 39.9432 19.0909 40.3977 19.0909C40.8523 19.0909 41.25 19.0341 41.6477 18.8636C42.0455 18.6932 42.3295 18.5227 42.6136 18.2386C42.8977 17.9545 43.125 17.6705 43.2955 17.3295C43.4659 16.9886 43.5227 16.6477 43.5227 16.3068C43.5227 15.9659 43.4659 15.625 43.2955 15.2841C43.125 14.9432 42.8977 14.6591 42.6136 14.375H44.375V13.125H44.4318ZM41.4773 17.3295C41.1932 17.6705 40.8523 17.8409 40.4545 17.8409C40.0568 17.8409 39.7159 17.6705 39.4318 17.3295C39.1477 16.9886 39.0341 16.5909 39.0341 16.1364C39.0341 15.6818 39.1477 15.2841 39.4318 14.9432C39.7159 14.6023 40.0568 14.4318 40.4545 14.4318C40.8523 14.4318 41.1932 14.6023 41.4773 14.9432C41.7614 15.2841 41.9318 15.6818 41.9318 16.1364C41.875 16.5909 41.7614 16.9886 41.4773 17.3295Z" fill="#005AA9"/>
<path id="Vector_5" d="M38.8636 23.9205V20H40.5114V22.6136H47.5V23.9205H38.8636Z" fill="#005AA9"/>
<path id="Vector_6" d="M47.1591 20.568H45.5682V10.6816H47.1591V13.8635H49.0909V15.1703H47.1591V20.568Z" fill="#005AA9"/>
<path id="Vector_7" d="M60.4545 11.0793C60.4545 11.4202 60.3977 11.8179 60.3977 12.2156C60.3409 12.6134 60.3409 13.0111 60.2841 13.4656C60.2273 13.8634 60.1705 14.2611 60.1136 14.6588C60.0568 15.0566 60 15.3975 59.9432 15.7384H62.1591V17.0452H57.0455V19.2611H60.2841V24.1475H58.6364V20.4543H51.3636V19.2043H55.2841V16.9884H49.8295V15.6816H58.2955C58.4091 15.1702 58.4659 14.602 58.5795 14.0338C58.6364 13.4088 58.6932 12.8975 58.75 12.3293H51.5341V11.0225H60.4545V11.0793Z" fill="#005AA9"/>
<path id="Vector_8" d="M68.125 21.5908V18.4658H69.8864V21.5908H75.1705V22.8408H62.8409V21.5908H68.125Z" fill="#005AA9"/>
<path id="Vector_9" d="M69.8296 11.1934V12.8411C69.8296 13.2956 69.9432 13.7502 70.1705 14.2047C70.3977 14.6593 70.7386 15.1138 71.1364 15.5115C71.5341 15.9093 72.0455 16.307 72.6136 16.6479C73.1818 16.9888 73.75 17.2161 74.375 17.4434L73.3523 18.4661C72.2727 18.1252 71.4205 17.6138 70.6818 17.0456C69.9432 16.4774 69.375 15.7956 68.9773 15.057C68.5796 15.7956 67.9546 16.4774 67.2159 17.0456C66.4773 17.6138 65.5682 18.0684 64.5455 18.4661L63.5227 17.4434C64.1477 17.2729 64.7159 16.9888 65.2841 16.6479C65.8523 16.307 66.3068 15.9661 66.7614 15.5115C67.1591 15.1138 67.5 14.6593 67.7841 14.2047C68.0114 13.7502 68.1818 13.2956 68.1818 12.8411V11.1934H69.8296Z" fill="#005AA9"/>
<path id="Vector_10" d="M80.5682 11.0225V13.2952H77.5568V11.0225H75.9091V17.727H82.1591V11.0225H80.5682ZM80.5682 16.4202H77.5568V14.602H80.5682V16.4202Z" fill="#005AA9"/>
<path id="Vector_11" d="M85.1136 20.5107C84.9432 20.113 84.6591 19.8289 84.375 19.5448C84.0909 19.2607 83.6932 19.0335 83.2955 18.863C82.8977 18.6926 82.4432 18.6357 81.9318 18.6357C81.4205 18.6357 80.9659 18.7494 80.5682 18.863C80.1705 19.0335 79.7727 19.2607 79.4318 19.5448C79.1477 19.8289 78.8636 20.1698 78.6932 20.5107C78.5227 20.9085 78.4091 21.3062 78.4091 21.7039C78.4091 22.1017 78.5227 22.4994 78.6932 22.8971C78.8636 23.238 79.0909 23.5789 79.4318 23.863C79.7727 24.1471 80.1136 24.3744 80.5682 24.5448C80.9659 24.7153 81.4773 24.7721 81.9318 24.7721C82.3864 24.7721 82.8409 24.7153 83.2955 24.5448C83.6932 24.3744 84.0909 24.1471 84.375 23.863C84.7159 23.5789 84.9432 23.238 85.1136 22.8971C85.2841 22.5562 85.3977 22.1585 85.3977 21.7039C85.3977 21.2494 85.2841 20.8517 85.1136 20.5107ZM83.1818 22.9539C82.8409 23.2948 82.3864 23.4653 81.875 23.4653C81.3636 23.4653 80.9091 23.2948 80.5682 22.9539C80.2273 22.613 80.0568 22.1585 80.0568 21.7039C80.0568 21.2494 80.2273 20.7948 80.5682 20.4539C80.9091 20.113 81.3636 19.8857 81.875 19.8857C82.3864 19.8857 82.8409 20.0562 83.1818 20.4539C83.5227 20.7948 83.6932 21.2494 83.6932 21.7039C83.6932 22.1585 83.5227 22.5562 83.1818 22.9539Z" fill="#005AA9"/>
<path id="Vector_12" d="M85.6818 18.6362H84.0341V10.6816H85.6818V13.4657H87.6136V14.7726H85.6818V18.6362Z" fill="#005AA9"/>
<path id="Vector_13" d="M95.2841 13.0679C95.1136 12.6702 94.8295 12.3293 94.5455 12.0452C94.2045 11.7611 93.8636 11.5338 93.4659 11.3066C93.0682 11.1361 92.6136 11.0225 92.1023 11.0225C91.5909 11.0225 91.1364 11.1361 90.7386 11.3066C90.3409 11.477 89.9432 11.7043 89.6591 12.0452C89.375 12.3293 89.0909 12.6702 88.9205 13.0679C88.75 13.4656 88.6364 13.8634 88.6364 14.3179C88.6364 14.7725 88.75 15.1702 88.9205 15.5679C89.0909 15.9656 89.3182 16.3066 89.6591 16.5906C89.9432 16.8747 90.3409 17.102 90.7386 17.2725C91.1364 17.4429 91.6477 17.5566 92.1023 17.5566C92.5568 17.5566 93.0114 17.4429 93.4659 17.2725C93.8636 17.102 94.2614 16.8747 94.5455 16.5906C94.8295 16.3066 95.1136 15.9656 95.2841 15.5679C95.4545 15.1702 95.5682 14.7725 95.5682 14.3179C95.5682 13.9202 95.4545 13.4656 95.2841 13.0679ZM93.6932 15.1134C93.5795 15.3406 93.4659 15.5679 93.3523 15.7384C93.1818 15.9088 93.0114 16.0793 92.7841 16.1929C92.5568 16.3066 92.3296 16.3634 92.1023 16.3634C91.5909 16.3634 91.1932 16.1929 90.8523 15.7952C90.5114 15.3975 90.3409 14.9429 90.3409 14.3747C90.3409 13.8066 90.5114 13.352 90.8523 12.9543C91.1932 12.5566 91.5909 12.3293 92.1023 12.3293C92.5568 12.3293 93.0114 12.4997 93.3523 12.9543C93.6932 13.352 93.8636 13.8066 93.8636 14.3747C93.8068 14.602 93.8068 14.8861 93.6932 15.1134Z" fill="#005AA9"/>
<path id="Vector_14" d="M90.6818 23.9205V19.6592H92.3295V22.6137H99.3182V23.9205H90.6818Z" fill="#005AA9"/>
<path id="Vector_15" d="M104.318 23.9205V19.6592H105.966V22.6137H112.955V23.9205H104.318Z" fill="#005AA9"/>
<path id="Vector_16" d="M116.818 23.9201V20.7383H118.409V22.6133H125.568V23.9201H116.818Z" fill="#005AA9"/>
<path id="Vector_17" d="M98.9773 10.6816V13.4657H100.909V14.7726H98.9773V20.2271H97.3864V10.6816H98.9773Z" fill="#005AA9"/>
<path id="Vector_18" d="M109.261 12.5568H106.648V13.8636C106.648 14.3182 106.761 14.7727 106.932 15.1705C107.102 15.5682 107.33 15.9659 107.67 16.3636C107.955 16.7045 108.295 17.0455 108.693 17.3864C109.091 17.6705 109.489 17.9545 109.943 18.1818L108.75 19.1477C108.068 18.75 107.5 18.2955 106.989 17.8409C106.477 17.3864 106.08 16.875 105.852 16.3636C105.568 16.9886 105.114 17.5568 104.602 18.0682C104.034 18.5795 103.409 19.0341 102.784 19.4318L101.534 18.4659C102.045 18.2386 102.5 17.9545 102.898 17.6136C103.352 17.2727 103.693 16.9318 104.034 16.5341C104.375 16.1364 104.602 15.7386 104.773 15.2841C104.943 14.8295 105.057 14.375 105.057 13.8636V12.5H102.443V11.25H109.261V12.5568Z" fill="#005AA9"/>
<path id="Vector_19" d="M111.08 15.1703H108.636V13.8635H111.08V10.6816H112.727V20.3976H111.08V15.1703Z" fill="#005AA9"/>
<path id="Vector_20" d="M117.557 20.1701V18.1815H114.545V16.9315H117.5C117.841 16.9315 118.239 16.9315 118.693 16.8746C119.148 16.8746 119.659 16.8178 120.114 16.761C120.625 16.7042 121.08 16.6474 121.591 16.5906C122.102 16.5337 122.557 16.4201 122.955 16.3633V17.6133C122.386 17.7269 121.818 17.8406 121.136 17.8974C120.511 17.9542 119.83 18.011 119.148 18.0678V20.1133H117.557V20.1701Z" fill="#005AA9"/>
<path id="Vector_21" d="M121.591 12.443C121.42 12.1021 121.193 11.818 120.909 11.5339C120.625 11.3066 120.284 11.0794 119.886 10.9089C119.489 10.7385 119.091 10.6816 118.636 10.6816C118.182 10.6816 117.727 10.7385 117.33 10.9089C116.932 11.0794 116.591 11.2498 116.307 11.5339C116.023 11.818 115.795 12.1021 115.625 12.443C115.455 12.7839 115.398 13.1248 115.398 13.5225C115.398 13.9203 115.455 14.2612 115.625 14.6021C115.795 14.943 116.023 15.2271 116.307 15.4544C116.591 15.7385 116.932 15.9089 117.33 16.0794C117.727 16.2498 118.125 16.3066 118.636 16.3066C119.091 16.3066 119.489 16.2498 119.886 16.0794C120.284 15.9089 120.625 15.7385 120.909 15.4544C121.193 15.2271 121.42 14.8862 121.591 14.6021C121.761 14.2612 121.875 13.9203 121.875 13.5225C121.875 13.1248 121.761 12.7839 121.591 12.443ZM119.716 14.6021C119.375 14.943 119.034 15.0566 118.58 15.0566C118.125 15.0566 117.784 14.8862 117.443 14.6021C117.159 14.2612 116.989 13.9203 116.989 13.5225C116.989 13.1248 117.159 12.7271 117.443 12.443C117.727 12.1021 118.125 11.9885 118.58 11.9885C119.034 11.9885 119.375 12.1589 119.716 12.443C120.057 12.7839 120.17 13.1248 120.17 13.5225C120.227 13.9203 120.057 14.2612 119.716 14.6021Z" fill="#005AA9"/>
<path id="Vector_22" d="M123.75 19.7725H120.739V18.5225H123.75V10.6816H125.341V21.0225H123.75V19.7725Z" fill="#005AA9"/>
</g>
<g id="Group_3">
<path id="Vector_23" d="M24.6023 0H17.3295L17.0455 1.19318C18.6364 1.42045 19.2045 2.21591 18.8068 4.03409C15.6818 17.7273 5.56818 24.4318 5.56818 24.4318L5.28409 24.6591C5.45455 24.6023 5.51136 24.7159 5.34091 24.8295L5.11364 24.9432L5 24.8864C5 24.9432 5 25 5 25L5.05682 25.0568L4.82955 25.1136L4.77273 25C4.77273 25.3409 4.375 25.3409 4.14773 25.3977C3.29545 25.8523 2.27273 26.1364 1.30682 26.25C1.64773 26.3636 1.98864 26.0795 2.32955 26.1932C2.38636 26.3636 2.27273 26.4205 2.27273 26.5341C1.98864 26.4205 1.875 27.2159 1.59091 26.6477V26.7614C0.909091 26.7614 0.454546 27.1023 -0.056818 27.1591C0.795455 27.1023 1.64773 27.1591 2.44318 26.9886C2.84091 26.9886 3.29545 26.9318 3.69318 26.875C3.75 26.9886 3.63636 27.1023 3.63636 27.1591C3.35227 27.0455 3.23864 27.8409 2.95455 27.2727V27.3864C2.27273 27.3864 1.81818 27.6705 1.30682 27.7841C2.15909 27.7273 3.01136 27.7841 3.80682 27.6136C4.71591 27.6136 5.625 27.5568 6.42045 27.1023C6.47727 27.1023 6.64773 27.0455 6.64773 27.0455C7.95455 26.7614 20 23.6932 25.0568 7.32955C25.2841 6.59091 26.0227 4.03409 26.3636 1.64773C26.4773 1.76136 26.8182 0 24.6023 0Z" fill="url(#paint0_linear_846_2224)"/>
</g>
</g>
</g>
<defs>
<linearGradient id="paint0_linear_846_2224" x1="8.405" y1="24.1569" x2="20.6178" y2="6.0779" gradientUnits="userSpaceOnUse">
<stop stop-color="#0094D0"/>
<stop offset="1" stop-color="#0071BB"/>
</linearGradient>
<clipPath id="clip0_846_2224">
<rect width="125.568" height="30" fill="white"/>
</clipPath>
</defs>
</svg>
