<svg width="60" height="60" viewBox="0 0 60 60" fill="none" xmlns="http://www.w3.org/2000/svg">
<rect x="0.5" y="0.5" width="59" height="59" rx="29.5" fill="#6895D2" fill-opacity="0.1"/>
<rect x="0.5" y="0.5" width="59" height="59" rx="29.5" stroke="#E4EDF8"/>
<g clip-path="url(#clip0_846_2568)">
<path d="M13.6177 24.0293H18.3941" stroke="#6895D2" stroke-width="3" stroke-miterlimit="10" stroke-linecap="square"/>
<path d="M47.3824 24.0293H42.6059" stroke="#6895D2" stroke-width="3" stroke-miterlimit="10" stroke-linecap="square"/>
<path d="M43.1412 37.617H17.9412C15.8824 37.617 14.1942 35.9287 14.1942 33.8699V29.4228C14.1942 27.364 15.8824 25.6758 17.9412 25.6758H43.1412C45.2 25.6758 46.8883 27.364 46.8883 29.4228V33.8699C46.8883 35.9287 45.2412 37.617 43.1412 37.617Z" stroke="#6895D2" stroke-width="3" stroke-miterlimit="10"/>
<path d="M42.6883 25.6348H18.3942L19.9589 19.6642C20.4118 17.8525 22.0589 16.6172 23.9118 16.6172H37.1706C39.0236 16.6172 40.6295 17.8525 41.1236 19.6642L42.6883 25.6348Z" stroke="#6895D2" stroke-width="3" stroke-miterlimit="10"/>
<path d="M22.506 31.6462C22.506 32.8482 21.5315 33.8227 20.3295 33.8227C19.1275 33.8227 18.153 32.8482 18.153 31.6462C18.153 30.4442 19.1275 29.4697 20.3295 29.4697C21.5315 29.4697 22.506 30.4442 22.506 31.6462Z" fill="#6895D2" stroke="#6895D2"/>
<path d="M42.9295 31.6462C42.9295 32.8482 41.955 33.8227 40.753 33.8227C39.551 33.8227 38.5765 32.8482 38.5765 31.6462C38.5765 30.4442 39.551 29.4697 40.753 29.4697C41.955 29.4697 42.9295 30.4442 42.9295 31.6462Z" fill="#6895D2" stroke="#6895D2"/>
<path d="M21.1941 42.7642H19.5059C18.7235 42.7642 18.1059 42.1466 18.1059 41.3642V37.6172H22.5941V41.3642C22.5941 42.1054 21.9353 42.7642 21.1941 42.7642Z" stroke="#6895D2" stroke-width="3" stroke-miterlimit="10"/>
<path d="M39.9295 42.7642H41.6177C42.4 42.7642 43.0177 42.1466 43.0177 41.3642V37.6172H38.4883V41.3642C38.4883 42.1054 39.1471 42.7642 39.9295 42.7642Z" stroke="#6895D2" stroke-width="3" stroke-miterlimit="10"/>
</g>
<defs>
<clipPath id="clip0_846_2568">
<rect width="35" height="27.3824" fill="white" transform="translate(13 16)"/>
</clipPath>
</defs>
</svg>
