<svg width="34" height="34" viewBox="0 0 34 34" fill="none" xmlns="http://www.w3.org/2000/svg">
<g id="Frame 4349">
<rect width="34" height="34" rx="17" fill="#DDDDDD"/>
<path id="Vector" d="M25 23.75V15.25C25 15.0948 24.9639 14.9416 24.8944 14.8028C24.825 14.6639 24.7242 14.5431 24.6 14.45L17.6 9.2C17.4269 9.07018 17.2164 9 17 9C16.7836 9 16.5731 9.07018 16.4 9.2L9.4 14.45C9.2758 14.5431 9.175 14.6639 9.10557 14.8028C9.03614 14.9416 9 15.0948 9 15.25V23.75C9 24.0152 9.10536 24.2696 9.29289 24.4571C9.48043 24.6446 9.73478 24.75 10 24.75H14C14.2652 24.75 14.5196 24.6446 14.7071 24.4571C14.8946 24.2696 15 24.0152 15 23.75V20.75C15 20.4848 15.1054 20.2304 15.2929 20.0429C15.4804 19.8554 15.7348 19.75 16 19.75H18C18.2652 19.75 18.5196 19.8554 18.7071 20.0429C18.8946 20.2304 19 20.4848 19 20.75V23.75C19 24.0152 19.1054 24.2696 19.2929 24.4571C19.4804 24.6446 19.7348 24.75 20 24.75H24C24.2652 24.75 24.5196 24.6446 24.7071 24.4571C24.8946 24.2696 25 24.0152 25 23.75Z" fill="#666666"/>
</g>
</svg>
