<svg width="24" height="24" viewBox="0 0 24 24" fill="none" xmlns="http://www.w3.org/2000/svg">
<g id="Frame" clip-path="url(#clip0_846_4484)">
<g id="Group">
<path id="Vector" d="M23.1711 7.6022C22.5655 6.06287 21.6589 4.68593 20.4815 3.5086C19.3042 2.33126 17.9273 1.42796 16.3879 0.822382C14.7843 0.193118 13.0928 -0.0775333 11.3606 0.0205777C9.72315 0.111923 8.15337 0.528049 6.69185 1.25881C5.5382 1.83394 4.49958 2.58162 3.5929 3.4883L2.98055 2.87257C2.48323 2.37524 1.63067 2.60191 1.44798 3.28193L0 8.69157L5.40626 7.24358C6.08627 7.06089 6.31632 6.21173 5.81562 5.71102L5.02735 4.92275C6.75613 3.19735 9.01607 2.1824 11.4722 2.04708C14.2836 1.89145 17.0443 2.94699 19.0471 4.94643C21.0465 6.94587 22.1088 9.70651 21.9532 12.5179C21.6656 17.7787 17.3081 21.8993 12.0338 21.8993C7.86919 21.8993 4.1139 19.2706 2.69298 15.3564L2.3479 14.4023L0.439808 15.0925L0.784889 16.0465C1.61376 18.3335 3.10572 20.2924 5.09501 21.7099C7.12828 23.1613 9.52692 23.9258 12.0338 23.9258C18.384 23.9258 23.6312 18.9628 23.9797 12.6262C24.0744 10.894 23.8038 9.2058 23.1711 7.6022Z" fill="black"/>
<path id="Vector_2" d="M11.3472 3.63086V11.95C11.3472 12.5184 11.8073 12.9785 12.3756 12.9785H12.5516C12.5955 12.9819 12.6395 12.9852 12.6835 12.9852C12.7275 12.9852 12.7715 12.9819 12.8155 12.9785H18.7495V10.9486H13.5394C13.4887 10.8978 13.4346 10.8539 13.3771 10.8099V3.63086H11.3472Z" fill="black"/>
</g>
</g>
<defs>
<clipPath id="clip0_846_4484">
<rect width="24" height="23.9256" fill="white"/>
</clipPath>
</defs>
</svg>
