<svg width="78" height="97" viewBox="0 0 78 97" fill="none" xmlns="http://www.w3.org/2000/svg">
<rect width="77.9464" height="97" transform="translate(0.0273438)" fill="#DDDDDD"/>
<path d="M39.0273 43C40.1764 43 41.3142 42.7737 42.3758 42.3339C43.4374 41.8942 44.402 41.2497 45.2145 40.4372C46.027 39.6247 46.6716 38.6601 47.1113 37.5985C47.551 36.5369 47.7773 35.3991 47.7773 34.25C47.7773 33.1009 47.551 31.9631 47.1113 30.9015C46.6716 29.8399 46.027 28.8753 45.2145 28.0628C44.402 27.2503 43.4374 26.6058 42.3758 26.1661C41.3142 25.7263 40.1764 25.5 39.0273 25.5C36.7067 25.5 34.4811 26.4219 32.8402 28.0628C31.1992 29.7038 30.2773 31.9294 30.2773 34.25C30.2773 36.5706 31.1992 38.7962 32.8402 40.4372C34.4811 42.0781 36.7067 43 39.0273 43ZM16.5273 69V70.5H61.5273V69C61.5273 63.4 61.5273 60.6 60.4373 58.46C59.4786 56.5785 57.9489 55.0487 56.0673 54.09C53.9273 53 51.1273 53 45.5273 53H32.5273C26.9273 53 24.1273 53 21.9873 54.09C20.1058 55.0487 18.5761 56.5785 17.6173 58.46C16.5273 60.6 16.5273 63.4 16.5273 69Z" fill="white" stroke="white" stroke-width="2" stroke-linecap="round" stroke-linejoin="round"/>
</svg>
