<svg width="18" height="19" viewBox="0 0 18 19" fill="none" xmlns="http://www.w3.org/2000/svg">
<path d="M15.875 1.75H13.8125V1.0625C13.8125 0.880164 13.7401 0.705295 13.6111 0.576364C13.4822 0.447433 13.3073 0.375 13.125 0.375C12.9427 0.375 12.7678 0.447433 12.6389 0.576364C12.5099 0.705295 12.4375 0.880164 12.4375 1.0625V1.75H5.5625V1.0625C5.5625 0.880164 5.49007 0.705295 5.36114 0.576364C5.2322 0.447433 5.05734 0.375 4.875 0.375C4.69266 0.375 4.5178 0.447433 4.38886 0.576364C4.25993 0.705295 4.1875 0.880164 4.1875 1.0625V1.75H2.125C1.76033 1.75 1.41059 1.89487 1.15273 2.15273C0.894866 2.41059 0.75 2.76033 0.75 3.125V16.875C0.75 17.2397 0.894866 17.5894 1.15273 17.8473C1.41059 18.1051 1.76033 18.25 2.125 18.25H15.875C16.2397 18.25 16.5894 18.1051 16.8473 17.8473C17.1051 17.5894 17.25 17.2397 17.25 16.875V3.125C17.25 2.76033 17.1051 2.41059 16.8473 2.15273C16.5894 1.89487 16.2397 1.75 15.875 1.75ZM4.1875 3.125V3.8125C4.1875 3.99484 4.25993 4.1697 4.38886 4.29864C4.5178 4.42757 4.69266 4.5 4.875 4.5C5.05734 4.5 5.2322 4.42757 5.36114 4.29864C5.49007 4.1697 5.5625 3.99484 5.5625 3.8125V3.125H12.4375V3.8125C12.4375 3.99484 12.5099 4.1697 12.6389 4.29864C12.7678 4.42757 12.9427 4.5 13.125 4.5C13.3073 4.5 13.4822 4.42757 13.6111 4.29864C13.7401 4.1697 13.8125 3.99484 13.8125 3.8125V3.125H15.875V5.875H2.125V3.125H4.1875ZM15.875 16.875H2.125V7.25H15.875V16.875ZM7.625 9.3125V14.8125C7.625 14.9948 7.55257 15.1697 7.42364 15.2986C7.2947 15.4276 7.11984 15.5 6.9375 15.5C6.75516 15.5 6.5803 15.4276 6.45136 15.2986C6.32243 15.1697 6.25 14.9948 6.25 14.8125V10.4245L5.87016 10.6153C5.70697 10.6969 5.51804 10.7103 5.34495 10.6526C5.17186 10.5949 5.02878 10.4708 4.94719 10.3077C4.86559 10.1445 4.85217 9.95554 4.90986 9.78245C4.96756 9.60936 5.09165 9.46628 5.25484 9.38469L6.62984 8.69719C6.7347 8.64472 6.85123 8.61994 6.96836 8.6252C7.08549 8.63046 7.19933 8.6656 7.29906 8.72726C7.39878 8.78892 7.48108 8.87506 7.53813 8.97749C7.59518 9.07993 7.62508 9.19525 7.625 9.3125ZM12.7091 11.9293L11.0625 14.125H12.4375C12.6198 14.125 12.7947 14.1974 12.9236 14.3264C13.0526 14.4553 13.125 14.6302 13.125 14.8125C13.125 14.9948 13.0526 15.1697 12.9236 15.2986C12.7947 15.4276 12.6198 15.5 12.4375 15.5H9.6875C9.55982 15.5 9.43467 15.4644 9.32606 15.3973C9.21745 15.3302 9.12968 15.2342 9.07258 15.12C9.01548 15.0058 8.99131 14.8779 9.00278 14.7508C9.01424 14.6236 9.06089 14.5021 9.1375 14.4L11.6108 11.1026C11.667 11.0277 11.7074 10.9421 11.7294 10.851C11.7514 10.76 11.7545 10.6654 11.7386 10.5731C11.7227 10.4808 11.6882 10.3927 11.637 10.3142C11.5859 10.2357 11.5192 10.1686 11.4412 10.1168C11.3631 10.065 11.2753 10.0297 11.1831 10.0131C11.0909 9.99646 10.9963 9.99885 10.9051 10.0201C10.8139 10.0414 10.7279 10.081 10.6526 10.1367C10.5773 10.1923 10.5141 10.2628 10.467 10.3438C10.4231 10.4244 10.3636 10.4955 10.2919 10.5528C10.2202 10.6101 10.1377 10.6525 10.0493 10.6774C9.96095 10.7023 9.86849 10.7093 9.7774 10.6979C9.6863 10.6865 9.59841 10.6569 9.51891 10.611C9.43941 10.5651 9.36992 10.5037 9.31452 10.4305C9.25913 10.3573 9.21896 10.2737 9.19639 10.1847C9.17381 10.0957 9.16929 10.0031 9.18309 9.91236C9.19689 9.82159 9.22872 9.73451 9.27672 9.65625C9.50382 9.26325 9.85422 8.95614 10.2736 8.78252C10.693 8.60891 11.1579 8.57849 11.5964 8.69598C12.0348 8.81347 12.4222 9.0723 12.6986 9.43236C12.975 9.79243 13.1248 10.2336 13.125 10.6875C13.1265 11.1359 12.9803 11.5723 12.7091 11.9293Z" fill="#666666"/>
</svg>
