<svg width="32" height="26" viewBox="0 0 32 26" fill="none" xmlns="http://www.w3.org/2000/svg">
<g id="Frame 4387">
<g id="Group">
<g id="Group_2">
<path id="Vector" d="M31.0452 23.1935C31.0452 24.2258 30.1936 25 29.0581 25H2.94193C1.80645 25 0.954834 24.2258 0.954834 23.1935V6.4192C0.954834 5.38693 1.80645 4.61273 2.94193 4.61273H29.0581C30.1936 4.61273 31.0452 5.38693 31.0452 6.4192V23.1935Z" stroke="#666666" stroke-width="1.5" stroke-miterlimit="10"/>
</g>
<g id="Group_3">
<path id="Vector_2" d="M20.5419 4.0968C20.5419 4.35487 20.5419 4.61293 20.258 4.61293H11.7419C11.458 4.61293 11.1742 4.35487 11.458 4.0968L12.5935 1.51613C12.5935 1.25807 13.1613 1 13.4451 1H18.8387C19.1226 1 19.6903 1.25807 19.6903 1.51613L20.5419 4.0968Z" stroke="#666666" stroke-width="1.5" stroke-miterlimit="10"/>
</g>
<path id="Vector_3" d="M24.5161 14.9358C24.5161 10.8067 20.8258 7.7099 16 7.7099C11.458 7.7099 7.48383 11.0648 7.48383 14.9358C7.48383 19.0648 11.1742 22.1616 16 22.1616C20.8258 22.1616 24.5161 18.8068 24.5161 14.9358Z" stroke="#666666" stroke-width="1.5" stroke-miterlimit="10"/>
<path id="Vector_4" d="M21.1097 14.9354C21.1097 12.3547 18.8387 10.5482 16 10.5482C13.1613 10.5482 11.1742 12.3547 11.1742 14.6773C11.1742 16.9999 13.4452 18.8064 16 18.8064C18.8387 19.0644 21.1097 17.258 21.1097 14.9354Z" stroke="#666666" stroke-width="1.5" stroke-miterlimit="10"/>
<path id="Vector_5" d="M3.79352 6.67725V7.45145" stroke="#666666" stroke-width="1.5" stroke-miterlimit="10" stroke-linecap="round"/>
<path id="Vector_6" d="M6.34839 6.67725V7.45145" stroke="#666666" stroke-width="1.5" stroke-miterlimit="10" stroke-linecap="round"/>
</g>
</g>
</svg>
