<svg width="32" height="24" viewBox="0 0 32 24" fill="none" xmlns="http://www.w3.org/2000/svg">
<g id="Frame 4386">
<g id="Group">
<g id="Group_2">
<path id="Vector" d="M31.0473 22.4359C31.0473 22.7179 30.737 23 30.4268 23H9.95008C9.63983 23 9.32957 22.7179 9.32957 22.4359V8.89759C9.32957 8.61554 9.63983 8.3335 9.95008 8.3335H30.4268C30.737 8.3335 31.0473 8.61554 31.0473 8.89759V22.4359Z" stroke="#666666" stroke-width="1.5" stroke-miterlimit="10"/>
</g>
<path id="Vector_2" d="M22.3602 17.6406C19.2577 17.6406 16.4654 19.8969 16.4654 22.9995H28.255C28.255 19.8969 25.773 17.6406 22.3602 17.6406Z" stroke="#666666" stroke-width="1.5" stroke-miterlimit="10"/>
<path id="Vector_3" d="M14.9141 19.6153L12.4321 18.7692" stroke="#666666" stroke-width="1.5" stroke-miterlimit="10" stroke-linecap="round"/>
<path id="Vector_4" d="M18.0167 16.2309L16.4654 13.9745" stroke="#666666" stroke-width="1.5" stroke-miterlimit="10" stroke-linecap="round"/>
<path id="Vector_5" d="M22.6704 15.1026L22.9797 12.5642" stroke="#666666" stroke-width="1.5" stroke-miterlimit="10" stroke-linecap="round"/>
<path id="Vector_6" d="M26.7037 16.5128L28.5652 14.5385" stroke="#666666" stroke-width="1.5" stroke-miterlimit="10" stroke-linecap="round"/>
<path id="Vector_7" d="M4.36555 20.1794V7.48723C4.36555 6.92313 4.67581 6.07699 5.29631 5.51289C5.91682 4.9488 6.53732 4.66675 7.15783 4.66675H25.1525" stroke="#666666" stroke-width="1.5" stroke-miterlimit="10" stroke-linecap="round"/>
<path id="Vector_8" d="M0.952759 16.5126V3.82048C0.952759 3.25638 0.952759 2.41024 1.57326 1.84614C2.19377 1.28205 2.81427 1 3.74503 1H21.7397" stroke="#666666" stroke-width="1.5" stroke-miterlimit="10" stroke-linecap="round"/>
</g>
</g>
</svg>
