<svg width="40" height="40" viewBox="0 0 40 40" fill="none" xmlns="http://www.w3.org/2000/svg">
<g id="Frame 3828">
<rect width="40" height="40" rx="20" fill="#F1F1F1"/>
<g id="Group">
<path id="Vector" d="M32.0777 29.9982H8.38835C8.15534 29.9982 8 29.804 8 29.6098V14.0758C8 13.8817 8.15534 13.6875 8.38835 13.6875H32.0777C32.2718 13.6875 32.466 13.8817 32.466 14.0758V29.6098C32.466 29.8428 32.2718 29.9982 32.0777 29.9982Z" fill="white" stroke="black" stroke-miterlimit="10" stroke-linecap="round" stroke-linejoin="round"/>
<path id="Vector_2" d="M32.4283 13.8047H8.19531V17.2222H32.4283V13.8047Z" fill="#D2184C" stroke="black" stroke-miterlimit="10" stroke-linecap="round" stroke-linejoin="round"/>
<path id="Vector_3" d="M15.9629 15.6699V11.5534C15.9629 10.699 16.6619 10 17.5163 10H19.0697" stroke="black" stroke-miterlimit="10" stroke-linecap="round" stroke-linejoin="round"/>
<path id="Vector_4" d="M22.6426 15.6699V11.5534C22.6426 10.699 23.3416 10 24.196 10H25.7494" stroke="black" stroke-miterlimit="10" stroke-linecap="round" stroke-linejoin="round"/>
<path id="Vector_5" d="M23.0684 24.0244L25.2431 26.1992L28.5829 22.8594" stroke="black" stroke-miterlimit="10" stroke-linecap="round" stroke-linejoin="round"/>
</g>
</g>
</svg>
