<svg width="15" height="15" viewBox="0 0 15 15" fill="none" xmlns="http://www.w3.org/2000/svg">
<g id="rivet-icons:exclamation-mark-circle" clip-path="url(#clip0_602_6154)">
<g id="Group">
<path id="Vector" d="M6.5625 8.4375V3.75H8.4375V8.4375H6.5625ZM7.5 11.25C7.74864 11.25 7.9871 11.1512 8.16291 10.9754C8.33873 10.7996 8.4375 10.5611 8.4375 10.3125C8.4375 10.0639 8.33873 9.8254 8.16291 9.64959C7.9871 9.47377 7.74864 9.375 7.5 9.375C7.25136 9.375 7.0129 9.47377 6.83709 9.64959C6.66127 9.8254 6.5625 10.0639 6.5625 10.3125C6.5625 10.5611 6.66127 10.7996 6.83709 10.9754C7.0129 11.1512 7.25136 11.25 7.5 11.25Z" fill="#999999"/>
<path id="Vector_2" d="M0 7.5C0 5.51088 0.790176 3.60322 2.1967 2.1967C3.60322 0.790176 5.51088 0 7.5 0C9.48912 0 11.3968 0.790176 12.8033 2.1967C14.2098 3.60322 15 5.51088 15 7.5C15 9.48912 14.2098 11.3968 12.8033 12.8033C11.3968 14.2098 9.48912 15 7.5 15C5.51088 15 3.60322 14.2098 2.1967 12.8033C0.790176 11.3968 0 9.48912 0 7.5ZM7.5 1.875C6.76131 1.875 6.02986 2.02049 5.34741 2.30318C4.66495 2.58586 4.04485 3.00019 3.52252 3.52252C3.00019 4.04485 2.58586 4.66495 2.30318 5.34741C2.02049 6.02986 1.875 6.76131 1.875 7.5C1.875 8.23869 2.02049 8.97014 2.30318 9.65259C2.58586 10.3351 3.00019 10.9551 3.52252 11.4775C4.04485 11.9998 4.66495 12.4141 5.34741 12.6968C6.02986 12.9795 6.76131 13.125 7.5 13.125C8.99184 13.125 10.4226 12.5324 11.4775 11.4775C12.5324 10.4226 13.125 8.99184 13.125 7.5C13.125 6.00816 12.5324 4.57742 11.4775 3.52252C10.4226 2.46763 8.99184 1.875 7.5 1.875Z" fill="#999999"/>
</g>
</g>
<defs>
<clipPath id="clip0_602_6154">
<rect width="15" height="15" fill="white"/>
</clipPath>
</defs>
</svg>
