<svg width="16" height="13" viewBox="0 0 16 13" fill="none" xmlns="http://www.w3.org/2000/svg">
<g id="Frame 604">
<path id="Vector" d="M1.8925 8.9072C1.2975 8.1344 1 7.7473 1 6.6C1 5.452 1.2975 5.0663 1.8925 4.2928C3.0804 2.75 5.0726 1 8 1C10.9274 1 12.9196 2.75 14.1075 4.2928C14.7025 5.067 15 5.4527 15 6.6C15 7.748 14.7025 8.1337 14.1075 8.9072C12.9196 10.45 10.9274 12.2 8 12.2C5.0726 12.2 3.0804 10.45 1.8925 8.9072Z" stroke="white" stroke-width="1.5"/>
<path id="Vector_2" d="M10.0999 6.1C10.0999 6.65695 9.87865 7.1911 9.48483 7.58492C9.091 7.97875 8.55686 8.2 7.9999 8.2C7.44295 8.2 6.9088 7.97875 6.51498 7.58492C6.12115 7.1911 5.8999 6.65695 5.8999 6.1C5.8999 5.54305 6.12115 5.0089 6.51498 4.61508C6.9088 4.22125 7.44295 4 7.9999 4C8.55686 4 9.091 4.22125 9.48483 4.61508C9.87865 5.0089 10.0999 5.54305 10.0999 6.1Z" stroke="white" stroke-width="1.5"/>
</g>
</svg>
