<svg width="13" height="13" viewBox="0 0 13 13" fill="none" xmlns="http://www.w3.org/2000/svg">
<g id="Group">
<path id="Vector" d="M5.46035 9.04629L2.95312 6.53848L3.78867 5.70293L5.46035 7.37402L8.80253 4.03125L9.63867 4.86739L5.46035 9.04629Z" fill="#666666"/>
<path id="Vector_2" fill-rule="evenodd" clip-rule="evenodd" d="M0 6.5C0 2.91023 2.91023 0 6.5 0C10.0898 0 13 2.91023 13 6.5C13 10.0898 10.0898 13 6.5 13C2.91023 13 0 10.0898 0 6.5ZM6.5 11.8182C5.80161 11.8182 5.11005 11.6806 4.46482 11.4134C3.81959 11.1461 3.23332 10.7544 2.73948 10.2605C2.24564 9.76668 1.8539 9.18041 1.58664 8.53518C1.31938 7.88995 1.18182 7.19839 1.18182 6.5C1.18182 5.80161 1.31938 5.11005 1.58664 4.46482C1.8539 3.81959 2.24564 3.23332 2.73948 2.73948C3.23332 2.24564 3.81959 1.8539 4.46482 1.58664C5.11005 1.31938 5.80161 1.18182 6.5 1.18182C7.91047 1.18182 9.26317 1.74212 10.2605 2.73948C11.2579 3.73683 11.8182 5.08953 11.8182 6.5C11.8182 7.91047 11.2579 9.26317 10.2605 10.2605C9.26317 11.2579 7.91047 11.8182 6.5 11.8182Z" fill="#666666"/>
</g>
</svg>
