<svg width="15" height="15" viewBox="0 0 15 15" fill="none" xmlns="http://www.w3.org/2000/svg">
<g clip-path="url(#clip0_1600_35400)">
<path d="M0 0.505179C0.472881 0.15179 0.866949 0.268739 1.39831 0.250942C3.63814 0.174671 5.89576 0.306874 8.13559 0.250942V1.52213H1.27119V13.7255H13.4746V7.11535H14.7458C14.7 9.27128 14.8093 11.4425 14.7458 13.5984C14.7305 14.1323 14.8424 14.5238 14.4915 14.9967H0.254237L0 14.7425V0.505179Z" fill="#004D16"/>
<path d="M14.7446 0.257812V5.5968H13.4735C13.4633 4.87985 13.4887 4.15527 13.4735 3.43578C13.4658 3.0468 13.6565 2.69849 13.0921 2.80019L7.75311 8.13917L6.86328 7.24934L12.2023 1.91035C12.304 1.34595 11.9557 1.53663 11.5667 1.529C10.8472 1.51374 10.1226 1.53917 9.40565 1.529V0.257812H14.7446Z" fill="#004D16"/>
</g>
<defs>
<clipPath id="clip0_1600_35400">
<rect width="15" height="15" fill="white"/>
</clipPath>
</defs>
</svg>
