<svg width="40" height="40" viewBox="0 0 40 40" fill="none" xmlns="http://www.w3.org/2000/svg">
<g id="Frame 3828">
<rect width="40" height="40" rx="20" fill="#F1F1F1"/>
<g id="Group 107">
<g id="Group">
<path id="Vector" d="M30.8091 28.0233C31.585 28.7993 31.585 30.0741 30.8091 30.9055C30.0331 31.6815 28.7583 31.6815 27.9268 30.9055L19.5019 22.4251C18.7259 21.6492 18.7259 20.3743 19.5019 19.5429C20.2779 18.7669 21.5527 18.7669 22.3841 19.5429L30.8091 28.0233Z" fill="white" stroke="#282828" stroke-linecap="round" stroke-linejoin="round"/>
<g id="Group_2">
<path id="Vector_2" d="M23.1039 10.6189C26.5404 14.0554 26.5404 19.709 23.1039 23.1455C19.6674 26.582 14.0139 26.582 10.5774 23.1455C7.14088 19.709 7.14088 14.0554 10.5774 10.6189C14.0139 7.12702 19.6674 7.12702 23.1039 10.6189Z" fill="white" stroke="#282828" stroke-linecap="round" stroke-linejoin="round"/>
<path id="Vector_3" d="M21.2757 12.3916C23.7699 14.8858 23.7699 18.8766 21.2757 21.3708C18.7814 23.8096 14.7907 23.8096 12.2965 21.3708C9.80222 18.8766 9.80222 14.8858 12.2965 12.3916C14.7907 9.9528 18.7814 9.9528 21.2757 12.3916Z" fill="#6ABBEE" stroke="#282828" stroke-linecap="round" stroke-linejoin="round"/>
</g>
</g>
<g id="Group_3">
<path id="Vector_4" d="M16.7302 14.3828C16.8411 14.3828 16.8965 14.4382 17.0073 14.4937C17.0628 14.5491 17.1182 14.6599 17.1736 14.7708L17.6725 16.7108H18.6702L19.169 14.6599C19.169 14.5491 19.2244 14.4937 19.3353 14.4382C19.3907 14.3828 19.5016 14.3828 19.6124 14.4382C19.7233 14.4382 19.7787 14.4937 19.8341 14.6045C19.8896 14.7154 19.8896 14.7708 19.8896 14.8817L19.3907 16.7662H20.0558C20.1113 16.7662 20.1667 16.7662 20.2221 16.8216C20.2775 16.877 20.2775 16.9325 20.2775 16.9879C20.2775 17.0433 20.2775 17.0987 20.2221 17.1542C20.1113 17.1542 20.0558 17.1542 20.0004 17.1542H19.2244L18.6147 19.593C18.5593 19.7038 18.5039 19.8147 18.4484 19.8701C18.393 19.9255 18.2822 19.981 18.1713 19.981C18.0605 19.981 18.005 19.9255 17.8942 19.8701C17.7833 19.8147 17.7833 19.7038 17.7279 19.593L17.1182 17.1542H16.2314L15.6217 19.593C15.5662 19.7038 15.5108 19.8147 15.4554 19.8701C15.3999 19.9255 15.2891 19.981 15.1782 19.981C15.0674 19.981 15.012 19.9255 14.9011 19.8701C14.8457 19.8147 14.7348 19.7038 14.7348 19.593L14.1805 17.1542H13.4046C13.3491 17.1542 13.2937 17.1542 13.2383 17.0987C13.2383 17.0433 13.2383 16.9879 13.2383 16.9325C13.2383 16.877 13.2383 16.8216 13.2937 16.7662C13.3491 16.7108 13.3491 16.7108 13.46 16.7108H14.1251L13.6263 14.8262C13.6263 14.7154 13.6263 14.6045 13.6817 14.5491C13.7371 14.4937 13.7926 14.4382 13.9034 14.3828C14.0143 14.3828 14.0697 14.3828 14.1805 14.3828C14.236 14.4382 14.2914 14.4937 14.3468 14.6045L14.8457 16.6553H15.8434L16.3422 14.7154C16.3976 14.6045 16.3976 14.4937 16.5085 14.4382C16.5085 14.3828 16.6193 14.3828 16.7302 14.3828ZM15.6771 17.1542H14.9011L15.2891 18.7616L15.6771 17.1542ZM17.0073 16.7108L16.6748 15.4359L16.3422 16.7108H17.0073ZM18.5039 17.1542H17.7279L18.1159 18.7616L18.5039 17.1542Z" fill="black"/>
</g>
</g>
</g>
</svg>
