<svg width="16" height="13" viewBox="0 0 16 13" fill="none" xmlns="http://www.w3.org/2000/svg">
<path id="Vector" fill-rule="evenodd" clip-rule="evenodd" d="M6.42641 12.75H9.57424C11.785 12.75 12.8907 12.75 13.6847 12.2294C14.0274 12.005 14.3225 11.7152 14.5531 11.3766C15.0837 10.5974 15.0837 9.51153 15.0837 7.3412C15.0837 5.17087 15.0837 4.08499 14.5531 3.30582C14.3225 2.96724 14.0274 2.67743 13.6847 2.45299C13.1747 2.11795 12.5358 1.99824 11.5576 1.95574C11.0908 1.95574 10.6892 1.60866 10.5978 1.15887C10.528 0.829398 10.3465 0.534142 10.0841 0.322998C9.82175 0.111854 9.49452 -0.00222758 9.15774 3.29593e-05H6.84291C6.14308 3.29593e-05 5.54028 0.485241 5.40287 1.15887C5.31149 1.60866 4.90987 1.95574 4.44308 1.95574C3.46558 1.99824 2.82666 2.11866 2.31595 2.45299C1.9735 2.67751 1.67864 2.9673 1.44824 3.30582C0.916992 4.08499 0.916992 5.17016 0.916992 7.3412C0.916992 9.51224 0.916992 10.5967 1.44753 11.3766C1.67703 11.7137 1.9717 12.0034 2.31595 12.2294C3.10999 12.75 4.2157 12.75 6.42641 12.75ZM8.00033 4.44341C6.37045 4.44341 5.0487 5.74037 5.0487 7.34049C5.0487 8.94062 6.37116 10.2397 8.00033 10.2397C9.62949 10.2397 10.952 8.94203 10.952 7.34191C10.952 5.74178 9.62949 4.44341 8.00033 4.44341ZM8.00033 5.60224C7.02283 5.60224 6.22949 6.3807 6.22949 7.3412C6.22949 8.30099 7.02283 9.07945 8.00033 9.07945C8.97783 9.07945 9.77116 8.30099 9.77116 7.3412C9.77116 6.38141 8.97783 5.60224 8.00033 5.60224ZM11.3451 5.02282C11.3451 4.70266 11.6093 4.44341 11.9358 4.44341H12.7221C13.0479 4.44341 13.3128 4.70266 13.3128 5.02282C13.3113 5.17788 13.2483 5.32599 13.1377 5.43464C13.0271 5.54328 12.8778 5.60356 12.7228 5.60224H11.9358C11.859 5.60299 11.7828 5.58859 11.7115 5.55988C11.6402 5.53117 11.5753 5.48869 11.5204 5.43489C11.4656 5.38108 11.4219 5.317 11.3918 5.2463C11.3617 5.1756 11.3458 5.09966 11.3451 5.02282Z" fill="white"/>
</svg>
