<svg width="40" height="40" viewBox="0 0 40 40" fill="none" xmlns="http://www.w3.org/2000/svg">
<g id="Frame 3828">
<rect width="40" height="40" rx="20" fill="#F1F1F1"/>
<g id="Group">
<g id="Vector">
<path d="M20.6699 25.7958L26.8709 31.9967L26.9092 27.1737L31.7321 27.1355L26.8709 22.3125" fill="#14945C"/>
<path d="M20.6699 25.7958L26.8709 31.9967L26.9092 27.1737L31.7321 27.1355L26.8709 22.3125" stroke="black" stroke-miterlimit="10" stroke-linecap="round" stroke-linejoin="round"/>
</g>
<g id="Vector_2">
<path d="M12.8612 22.3125L8 27.1355L12.823 27.1737L12.8612 31.9967L19.0622 25.7958" fill="#14945C"/>
<path d="M12.8612 22.3125L8 27.1355L12.823 27.1737L12.8612 31.9967L19.0622 25.7958" stroke="black" stroke-miterlimit="10" stroke-linecap="round" stroke-linejoin="round"/>
</g>
<path id="Vector_3" d="M19.6749 25.6077C14.8137 25.6077 10.8711 21.6651 10.8711 16.8038C10.8711 11.9426 14.8137 8 19.6749 8C24.5362 8 28.4787 11.9426 28.4787 16.8038C28.4787 21.6651 24.5362 25.6077 19.6749 25.6077Z" fill="#FFDA01" stroke="black" stroke-miterlimit="10" stroke-linecap="round" stroke-linejoin="round"/>
<path id="Vector_4" d="M19.6754 20.8195C17.4553 20.8195 15.6562 19.0205 15.6562 16.8004C15.6562 14.5803 17.4553 12.7812 19.6754 12.7812C21.8955 12.7812 23.6945 14.5803 23.6945 16.8004C23.6945 19.0205 21.8955 20.8195 19.6754 20.8195Z" fill="#D2184C" stroke="black" stroke-miterlimit="10" stroke-linecap="round" stroke-linejoin="round"/>
</g>
</g>
</svg>
