<svg width="17" height="18" viewBox="0 0 17 18" fill="none" xmlns="http://www.w3.org/2000/svg">
<g id="majesticons:phone">
<g id="Group">
<path id="Vector" d="M14.1673 11.6641V14.4974C12.2137 14.4974 10.5761 14.1468 9.20898 13.5589C6.48828 12.3887 4.83432 10.2793 3.89648 8.1224C3.11732 6.33173 2.83398 4.50848 2.83398 3.16406H5.66732L6.37565 5.9974L3.89648 8.1224C4.83432 10.2793 6.48828 12.3887 9.20898 13.5589L11.334 10.9557L14.1673 11.6641Z" fill="white"/>
<path id="Vector_2" d="M9.20898 13.5589C10.5761 14.1468 12.2137 14.4974 14.1673 14.4974V11.6641L11.334 10.9557L9.20898 13.5589ZM9.20898 13.5589C6.48828 12.3887 4.83432 10.2793 3.89648 8.1224M3.89648 8.1224C3.11732 6.33173 2.83398 4.50848 2.83398 3.16406H5.66732L6.37565 5.9974L3.89648 8.1224Z" stroke="white" stroke-width="2" stroke-linecap="round" stroke-linejoin="round"/>
</g>
</g>
</svg>
