<svg width="21" height="22" viewBox="0 0 21 22" fill="none" xmlns="http://www.w3.org/2000/svg">
<g id="Frame 2184">
<path id="Vector" d="M8 20H5C3.93913 20 2.92172 19.5786 2.17157 18.8284C1.42143 18.0783 1 17.0609 1 16V7C1 5.93913 1.42143 4.92172 2.17157 4.17157C2.92172 3.42143 3.93913 3 5 3H16C17.0609 3 18.0783 3.42143 18.8284 4.17157C19.5786 4.92172 20 5.93913 20 7V10M7 1V4M14 1V4M1 8H20" stroke="white" stroke-width="1.5" stroke-linecap="round" stroke-linejoin="round"/>
<path id="Vector_2" d="M19.6663 15.667C19.0473 14.097 17.6343 13 15.9893 13C14.2303 13 12.7363 14.255 12.1953 16" stroke="white" stroke-width="1.2" stroke-linecap="round" stroke-linejoin="round"/>
<path id="Vector_3" d="M17.9969 15.7728H19.4019C19.4807 15.7728 19.5588 15.7573 19.6315 15.7271C19.7043 15.697 19.7705 15.6528 19.8262 15.597C19.8819 15.5413 19.9261 15.4752 19.9563 15.4024C19.9864 15.3296 20.0019 15.2516 20.0019 15.1728V13.5508M12.3359 18.3338C12.9549 19.9038 14.3679 21.0008 16.0119 21.0008C17.7709 21.0008 19.2649 19.7458 19.8059 18.0008" stroke="white" stroke-width="1.2" stroke-linecap="round" stroke-linejoin="round"/>
<path id="Vector_4" d="M14.005 18.2285H12.6C12.4409 18.2285 12.2883 18.2917 12.1757 18.4043C12.0632 18.5168 12 18.6694 12 18.8285V20.4505" stroke="white" stroke-width="1.2" stroke-linecap="round" stroke-linejoin="round"/>
</g>
</svg>
