<svg width="20" height="20" viewBox="0 0 20 20" fill="none" xmlns="http://www.w3.org/2000/svg">
<g id="mi:attachment">
<path id="Vector" d="M16.2187 4.64691C15.6454 4.02191 14.6113 3.98357 13.9221 4.67274L7.17208 11.4227C6.99708 11.5977 6.99708 11.8194 7.17208 11.9944C7.34708 12.1694 7.56875 12.1694 7.74375 11.9944L13.3271 6.41107C13.4843 6.25927 13.6948 6.17528 13.9133 6.17718C14.1317 6.17908 14.3408 6.26672 14.4953 6.42122C14.6498 6.57573 14.7374 6.78474 14.7393 7.00324C14.7412 7.22174 14.6572 7.43224 14.5054 7.58941L8.92208 13.1727C8.7318 13.3685 8.50418 13.5242 8.25269 13.6305C8.0012 13.7368 7.73094 13.7915 7.45792 13.7915C7.18489 13.7915 6.91463 13.7368 6.66314 13.6305C6.41165 13.5242 6.18403 13.3685 5.99375 13.1727C5.79795 12.9825 5.6423 12.7548 5.53602 12.5033C5.42974 12.2519 5.37497 11.9816 5.37497 11.7086C5.37497 11.4355 5.42974 11.1653 5.53602 10.9138C5.6423 10.6623 5.79795 10.4347 5.99375 10.2444L12.7438 3.49441C14.0496 2.18774 16.1729 2.14524 17.4354 3.50691C18.7287 4.81441 18.7662 6.92691 17.4104 8.18441L9.50542 16.0894C7.68042 17.9144 4.81875 17.9144 2.99375 16.0894C1.16875 14.2644 1.16875 11.4027 2.99375 9.57774L9.74375 2.82774C9.90092 2.67594 10.1114 2.59195 10.3299 2.59384C10.5484 2.59574 10.7574 2.68338 10.9119 2.83789C11.0664 2.9924 11.1541 3.20141 11.156 3.41991C11.1579 3.6384 11.0739 3.8489 10.9221 4.00607L4.17208 10.7561C2.99708 11.9311 2.99708 13.7361 4.17208 14.9111C5.34708 16.0861 7.15208 16.0861 8.32708 14.9111L16.2437 6.99441L16.2696 6.96941C16.8946 6.39691 16.9329 5.36191 16.2437 4.67274L16.2187 4.64691Z" fill="#333333"/>
</g>
</svg>
