<svg width="9" height="10" viewBox="0 0 9 10" fill="none" xmlns="http://www.w3.org/2000/svg">
<path id="Vector" d="M4.46974 0C4.73496 0 4.98932 0.105357 5.17685 0.292893C5.36439 0.48043 5.46974 0.734784 5.46974 1V3.268L7.43374 2.134C7.54751 2.0673 7.67336 2.02377 7.80402 2.0059C7.93468 1.98804 8.06759 1.99619 8.19509 2.0299C8.32259 2.06361 8.44216 2.1222 8.54692 2.20231C8.65168 2.28242 8.73957 2.38246 8.80551 2.49667C8.87145 2.61088 8.91415 2.73701 8.93115 2.86779C8.94815 2.99857 8.93911 3.13142 8.90456 3.25869C8.87 3.38597 8.81061 3.50515 8.72981 3.60937C8.64901 3.7136 8.54839 3.80082 8.43374 3.866L6.46974 5L8.43374 6.134C8.66155 6.26755 8.82729 6.48579 8.89478 6.74108C8.96228 6.99638 8.92605 7.26801 8.79402 7.49669C8.66198 7.72538 8.44485 7.89256 8.19001 7.96175C7.93517 8.03094 7.6633 7.99652 7.43374 7.866L5.46974 6.732V9C5.46974 9.26522 5.36439 9.51957 5.17685 9.70711C4.98932 9.89464 4.73496 10 4.46974 10C4.20453 10 3.95017 9.89464 3.76264 9.70711C3.5751 9.51957 3.46974 9.26522 3.46974 9V6.732L1.50574 7.866C1.39197 7.9327 1.26613 7.97623 1.13547 7.9941C1.00481 8.01196 0.871897 8.00381 0.744398 7.9701C0.616899 7.93639 0.497327 7.8778 0.392565 7.79769C0.287804 7.71758 0.199923 7.61754 0.133981 7.50333C0.0680397 7.38912 0.0253404 7.26299 0.00834177 7.13221C-0.00865684 7.00143 0.000380743 6.86858 0.0349345 6.74131C0.0694883 6.61403 0.128876 6.49485 0.209677 6.39063C0.290479 6.2864 0.391099 6.19918 0.505745 6.134L2.46974 5L0.505745 3.866C0.391099 3.80082 0.290479 3.7136 0.209677 3.60937C0.128876 3.50515 0.0694883 3.38597 0.0349345 3.25869C0.000380743 3.13142 -0.00865684 2.99857 0.00834177 2.86779C0.0253404 2.73701 0.0680397 2.61088 0.133981 2.49667C0.199923 2.38246 0.287804 2.28242 0.392565 2.20231C0.497327 2.1222 0.616899 2.06361 0.744398 2.0299C0.871897 1.99619 1.00481 1.98804 1.13547 2.0059C1.26613 2.02377 1.39197 2.0673 1.50574 2.134L3.46974 3.268V1C3.46974 0.734784 3.5751 0.48043 3.76264 0.292893C3.95017 0.105357 4.20453 0 4.46974 0Z" fill="#D93600"/>
</svg>
