<svg width="9" height="11" viewBox="0 0 9 11" fill="none" xmlns="http://www.w3.org/2000/svg">
<path fill-rule="evenodd" clip-rule="evenodd" d="M1.6875 0C1.23995 0 0.810725 0.177039 0.494257 0.492169C0.17779 0.8073 4.99897e-08 1.23471 4.99897e-08 1.68037V10.1595C-5.08211e-05 10.3067 0.0387251 10.4513 0.112446 10.5789C0.186167 10.7064 0.292247 10.8125 0.420065 10.8864C0.547884 10.9603 0.692956 10.9995 0.840759 11C0.988561 11.0005 1.13391 10.9624 1.26225 10.8894L4.221 9.20563C4.30597 9.1573 4.40214 9.13188 4.5 9.13188C4.59786 9.13188 4.69403 9.1573 4.779 9.20563L7.73775 10.8894C7.86609 10.9624 8.01144 11.0005 8.15924 11C8.30704 10.9995 8.45212 10.9603 8.57994 10.8864C8.70775 10.8125 8.81383 10.7064 8.88755 10.5789C8.96127 10.4513 9.00005 10.3067 9 10.1595V1.68037C9 1.23471 8.82221 0.8073 8.50574 0.492169C8.18928 0.177039 7.76005 0 7.3125 0H1.6875Z" fill="#F5E105"/>
</svg>
