<svg width="22" height="22" viewBox="0 0 22 22" fill="none" xmlns="http://www.w3.org/2000/svg">
<g id="majesticons:lock-line">
<path id="Vector" d="M7.33073 9.16667H5.4974C5.01117 9.16667 4.54485 9.35982 4.20103 9.70364C3.85722 10.0475 3.66406 10.5138 3.66406 11V17.4167C3.66406 17.9029 3.85722 18.3692 4.20103 18.713C4.54485 19.0568 5.01117 19.25 5.4974 19.25H16.4974C16.9836 19.25 17.4499 19.0568 17.7938 18.713C18.1376 18.3692 18.3307 17.9029 18.3307 17.4167V11C18.3307 10.5138 18.1376 10.0475 17.7938 9.70364C17.4499 9.35982 16.9836 9.16667 16.4974 9.16667H14.6641M7.33073 9.16667V6.41667C7.33073 5.44421 7.71704 4.51158 8.40467 3.82394C9.0923 3.13631 10.0249 2.75 10.9974 2.75C11.9699 2.75 12.9025 3.13631 13.5901 3.82394C14.2778 4.51158 14.6641 5.44421 14.6641 6.41667V9.16667M7.33073 9.16667H14.6641M10.9974 12.8333V15.5833" stroke="#333333" stroke-width="2" stroke-linecap="round" stroke-linejoin="round"/>
</g>
</svg>
