<svg width="26" height="26" viewBox="0 0 26 26" fill="none" xmlns="http://www.w3.org/2000/svg">
<g id="mi:attachment">
<path id="Vector" d="M21.0852 6.04098C20.3398 5.22848 18.9954 5.17865 18.0995 6.07456L9.32449 14.8496C9.09699 15.0771 9.09699 15.3652 9.32449 15.5927C9.55199 15.8202 9.84016 15.8202 10.0677 15.5927L17.326 8.3344C17.5303 8.13706 17.804 8.02786 18.088 8.03033C18.3721 8.0328 18.6438 8.14673 18.8446 8.34759C19.0455 8.54845 19.1594 8.82016 19.1619 9.10421C19.1644 9.38826 19.0552 9.66191 18.8578 9.86623L11.5995 17.1246C11.3521 17.3791 11.0562 17.5814 10.7293 17.7196C10.4023 17.8578 10.051 17.929 9.69607 17.929C9.34114 17.929 8.9898 17.8578 8.66287 17.7196C8.33593 17.5814 8.04002 17.3791 7.79266 17.1246C7.53812 16.8772 7.33578 16.5813 7.19761 16.2544C7.05944 15.9274 6.98825 15.5761 6.98825 15.2211C6.98825 14.8662 7.05944 14.5149 7.19761 14.1879C7.33578 13.861 7.53812 13.5651 7.79266 13.3177L16.5677 4.54273C18.2652 2.84406 21.0256 2.78881 22.6668 4.55898C24.3482 6.25873 24.3969 9.00498 22.6343 10.6397L12.3578 20.9162C9.98532 23.2887 6.26516 23.2887 3.89266 20.9162C1.52016 18.5437 1.52016 14.8236 3.89266 12.4511L12.6677 3.67606C12.872 3.47872 13.1456 3.36953 13.4297 3.372C13.7137 3.37447 13.9854 3.4884 14.1863 3.68926C14.3872 3.89012 14.5011 4.16183 14.5036 4.44588C14.506 4.72992 14.3968 5.00358 14.1995 5.2079L5.42449 13.9829C3.89699 15.5104 3.89699 17.8569 5.42449 19.3844C6.95199 20.9119 9.29849 20.9119 10.826 19.3844L21.1177 9.09273L21.1512 9.06023C21.9637 8.31598 22.0136 6.97048 21.1177 6.07456L21.0852 6.04098Z" fill="#333333"/>
</g>
</svg>
