<svg width="17" height="17" viewBox="0 0 17 17" fill="none" xmlns="http://www.w3.org/2000/svg">
<g id="iconamoon:search-light">
<path id="Vector" d="M14.8751 14.8751L11.7989 11.7989M11.7989 11.7989C12.3251 11.2726 12.7425 10.6479 13.0273 9.96041C13.312 9.27288 13.4586 8.53599 13.4586 7.79181C13.4586 7.04764 13.312 6.31075 13.0273 5.62322C12.7425 4.93569 12.3251 4.31098 11.7989 3.78477C11.2726 3.25856 10.6479 2.84114 9.96041 2.55636C9.27288 2.27158 8.53599 2.125 7.79181 2.125C7.04764 2.125 6.31075 2.27158 5.62322 2.55636C4.93569 2.84114 4.31098 3.25856 3.78477 3.78477C2.72204 4.8475 2.125 6.28888 2.125 7.79181C2.125 9.29474 2.72204 10.7361 3.78477 11.7989C4.8475 12.8616 6.28888 13.4586 7.79181 13.4586C9.29474 13.4586 10.7361 12.8616 11.7989 11.7989Z" stroke="white" stroke-width="1.5" stroke-linecap="round" stroke-linejoin="round"/>
</g>
</svg>
