<svg width="22" height="22" viewBox="0 0 22 22" fill="none" xmlns="http://www.w3.org/2000/svg">
<g id="majesticons:lock-off-line">
<path id="Vector" d="M7.33333 9.16749H5.5C5.01377 9.16749 4.54745 9.36064 4.20364 9.70446C3.85982 10.0483 3.66667 10.5146 3.66667 11.0008V17.4175C3.66667 17.9037 3.85982 18.37 4.20364 18.7139C4.54745 19.0577 5.01377 19.2508 5.5 19.2508H16.5C16.8218 19.2508 17.1379 19.1661 17.4166 19.0052C17.6953 18.8443 17.9268 18.6129 18.0877 18.3342M7.33333 9.16749V7.33416M7.33333 9.16749H9.16667M14.6667 9.16749H16.5C16.9862 9.16749 17.4525 9.36064 17.7964 9.70446C18.1402 10.0483 18.3333 10.5146 18.3333 11.0008V13.7508M14.6667 9.16749V6.41749C14.6668 5.77379 14.4975 5.14139 14.1757 4.58387C13.854 4.02635 13.3911 3.56336 12.8337 3.24145C12.2763 2.91953 11.6439 2.75004 11.0002 2.75C10.3565 2.74996 9.72413 2.91939 9.16667 3.24124M14.6667 9.16749H13.75M11 12.8342V15.5842M2.75 2.75082L19.25 19.2508" stroke="#333333" stroke-width="2" stroke-linecap="round" stroke-linejoin="round"/>
</g>
</svg>
