<svg width="40" height="40" viewBox="0 0 40 40" fill="none" xmlns="http://www.w3.org/2000/svg">
<g id="Frame 3828">
<rect width="40" height="40" rx="20" fill="#F1F1F1"/>
<g id="Group">
<path id="Vector" d="M30.7186 28.8132C30.7186 29.4583 30.181 29.9959 29.5359 29.9959H10.1827C9.53759 29.9959 9 29.4583 9 28.8132V18.2764C9 17.6313 9.53759 17.0938 10.1827 17.0938H29.5359C30.181 17.0938 30.7186 17.6313 30.7186 18.2764V28.8132Z" fill="#C6EEEC" stroke="#282828" stroke-linecap="round" stroke-linejoin="round"/>
<path id="Vector_2" d="M14.0011 10C13.3559 10 12.8184 10.5376 12.8184 11.1827V28.8156C12.8184 29.4607 13.3559 29.9983 14.0011 29.9983H16.5277C17.1728 29.9983 18.1943 29.9983 18.8394 29.9983H20.7747C21.4198 29.9983 22.4412 29.9983 23.0863 29.9983H25.613C26.2581 29.9983 26.7957 29.4607 26.7957 28.8156V11.1827C26.7957 10.5376 26.2581 10 25.613 10H14.0011Z" fill="#F8CE00" stroke="#282828" stroke-linecap="round" stroke-linejoin="round"/>
<g id="Group_2">
<path id="Vector_3" d="M18.0332 14.2969H21.6351" stroke="#282828" stroke-linecap="round" stroke-linejoin="round"/>
<path id="Vector_4" d="M18.0332 18.5391H21.6351" stroke="#282828" stroke-linecap="round" stroke-linejoin="round"/>
</g>
</g>
</g>
</svg>
