<svg width="16" height="16" viewBox="0 0 16 16" fill="none" xmlns="http://www.w3.org/2000/svg">
<g clip-path="url(#clip0_1600_35386)">
<path d="M1.15172 4.95763C2.83172 1.16763 7.26172 -0.532368 11.0417 1.14763C14.8217 2.82763 16.5317 7.25763 14.8517 11.0476C13.1717 14.8276 8.74172 16.5376 4.95172 14.8576C1.17172 13.1676 -0.528283 8.73763 1.15172 4.95763Z" stroke="#666666" stroke-linecap="round" stroke-linejoin="round"/>
<path d="M1.07812 10.1016C2.83812 10.1816 4.68813 10.6116 6.49813 11.4116C8.29813 12.2116 9.84813 13.2916 11.0881 14.5416" stroke="#666666" stroke-linecap="round" stroke-linejoin="round"/>
<path d="M4.92188 1.4375C6.16188 2.6875 7.72187 3.7775 9.53187 4.5875C11.3319 5.3875 13.1719 5.8075 14.9319 5.8975" stroke="#666666" stroke-linecap="round" stroke-linejoin="round"/>
<path d="M4.96914 14.8116C2.53914 13.7316 1.92914 9.79155 3.60914 6.00155C5.28914 2.22155 8.62914 0.0315529 11.0591 1.11155C13.4891 2.19155 14.0991 6.13155 12.4191 9.92155C10.7391 13.7116 7.39914 15.9016 4.96914 14.8216V14.8116Z" stroke="#666666" stroke-linecap="round" stroke-linejoin="round"/>
<path d="M14.8484 11.0409L1.14844 4.96094" stroke="#666666" stroke-linecap="round" stroke-linejoin="round"/>
<path d="M4.66016 14.6137L11.2202 1.34375" stroke="#666666" stroke-linecap="round" stroke-linejoin="round"/>
</g>
<defs>
<clipPath id="clip0_1600_35386">
<rect width="16" height="16" fill="white"/>
</clipPath>
</defs>
</svg>
